<svg width="1276" height="395" viewBox="0 0 1276 395" fill="none" xmlns="http://www.w3.org/2000/svg">
<rect opacity="0.13" x="56.3281" y="4.57532" width="1219.67" height="390.425" rx="31" fill="#68648E"/>
<path d="M1111.24 172.678V170.098H1116.06V184.678H1113.18V172.678H1111.24ZM1128.63 172.518H1122.15V175.938C1122.43 175.592 1122.83 175.312 1123.35 175.098C1123.87 174.872 1124.42 174.758 1125.01 174.758C1126.07 174.758 1126.95 174.992 1127.63 175.458C1128.31 175.925 1128.8 176.525 1129.11 177.258C1129.41 177.978 1129.57 178.752 1129.57 179.578C1129.57 181.112 1129.13 182.345 1128.25 183.278C1127.38 184.212 1126.14 184.678 1124.53 184.678C1123.01 184.678 1121.79 184.298 1120.89 183.538C1119.98 182.778 1119.47 181.785 1119.35 180.558H1122.07C1122.19 181.092 1122.45 181.518 1122.87 181.838C1123.29 182.158 1123.83 182.318 1124.49 182.318C1125.27 182.318 1125.87 182.072 1126.27 181.578C1126.67 181.085 1126.87 180.432 1126.87 179.618C1126.87 178.792 1126.66 178.165 1126.25 177.738C1125.85 177.298 1125.25 177.078 1124.47 177.078C1123.91 177.078 1123.44 177.218 1123.07 177.498C1122.69 177.778 1122.43 178.152 1122.27 178.618H1119.59V170.058H1128.63V172.518ZM1136.26 184.858C1135.35 184.858 1134.54 184.698 1133.82 184.378C1133.1 184.045 1132.52 183.598 1132.1 183.038C1131.68 182.478 1131.46 181.858 1131.42 181.178H1134.24C1134.29 181.605 1134.5 181.958 1134.86 182.238C1135.23 182.518 1135.69 182.658 1136.24 182.658C1136.77 182.658 1137.18 182.552 1137.48 182.338C1137.78 182.125 1137.94 181.852 1137.94 181.518C1137.94 181.158 1137.75 180.892 1137.38 180.718C1137.02 180.532 1136.44 180.332 1135.64 180.118C1134.81 179.918 1134.13 179.712 1133.6 179.498C1133.08 179.285 1132.62 178.958 1132.24 178.518C1131.86 178.078 1131.68 177.485 1131.68 176.738C1131.68 176.125 1131.85 175.565 1132.2 175.058C1132.56 174.552 1133.06 174.152 1133.72 173.858C1134.38 173.565 1135.16 173.418 1136.06 173.418C1137.38 173.418 1138.43 173.752 1139.22 174.418C1140 175.072 1140.44 175.958 1140.52 177.078H1137.84C1137.8 176.638 1137.61 176.292 1137.28 176.038C1136.96 175.772 1136.52 175.638 1135.98 175.638C1135.47 175.638 1135.08 175.732 1134.8 175.918C1134.53 176.105 1134.4 176.365 1134.4 176.698C1134.4 177.072 1134.58 177.358 1134.96 177.558C1135.33 177.745 1135.91 177.938 1136.7 178.138C1137.5 178.338 1138.16 178.545 1138.68 178.758C1139.2 178.972 1139.64 179.305 1140.02 179.758C1140.4 180.198 1140.6 180.785 1140.62 181.518C1140.62 182.158 1140.44 182.732 1140.08 183.238C1139.73 183.745 1139.22 184.145 1138.56 184.438C1137.9 184.718 1137.14 184.858 1136.26 184.858Z" fill="white"/>
<g clip-path="url(#clip0_22_294)">
<path d="M90.9102 178.565L105.086 101.883L119.262 242.505L133.438 60.6974L147.614 227.715L161.79 89.5955L175.966 178.338L190.141 94.829L204.317 161.955L218.493 271.176L232.669 140.565L246.845 108.709L261.021 102.566L275.197 128.278L289.373 98.2422L303.549 62.5178L317.724 264.35L331.9 238.182L346.076 186.757L360.252 74.1225L374.428 188.805L388.604 160.134L402.78 130.781L416.956 159.224L431.132 246.374L445.307 98.0147L459.483 241.368L473.659 174.697L487.835 261.392L502.011 68.4339L516.187 148.302L530.363 119.176L544.539 240.457L558.715 131.919L572.891 80.2662L587.066 249.332L601.242 272.314L615.418 255.703L629.594 56.1465L643.77 268.218L657.946 105.524L672.122 97.5596L686.298 274.134L700.474 267.763L714.649 142.386L728.825 229.99L743.001 217.475L757.177 255.703L771.353 121.679L785.529 262.984L799.705 222.937L813.881 253.883L828.057 191.08L842.233 214.745L856.408 135.559L870.584 201.775L884.76 60.6974L898.936 71.1644L913.112 172.194L927.288 77.3081" stroke="#FDFB81"/>
<g opacity="0.56">
<path d="M104.77 102.944L90.5 178.436H112.655L104.77 102.944Z" fill="url(#paint0_linear_22_294)"/>
<path d="M133.309 61.7663L123.921 178.436H143.448L133.309 61.7663Z" fill="url(#paint1_linear_22_294)"/>
<path d="M161.472 90.3618L152.46 178.436H206.534L205.032 162.423L189.636 95.3184L175.742 175.386L161.472 90.3618Z" fill="url(#paint2_linear_22_294)"/>
<path d="M232.445 139.546L228.314 178.436H311.678L304.168 61.7663L276.004 129.252L260.984 102.944L246.714 108.663L232.445 139.546Z" fill="url(#paint3_linear_22_294)"/>
<path d="M360.12 74.7296L346.977 178.436H372.512L360.12 74.7296Z" fill="url(#paint4_linear_22_294)"/>
<path d="M402.177 131.539L379.647 178.436H420.578L416.823 158.991L402.177 131.539Z" fill="url(#paint5_linear_22_294)"/>
<path d="M445.362 99.5124L437.476 178.436H453.247L445.362 99.5124Z" fill="url(#paint6_linear_22_294)"/>
<path d="M473.525 175.005L472.774 178.436H474.652L473.525 175.005Z" fill="url(#paint7_linear_22_294)"/>
<path d="M501.689 68.2479L493.803 178.436H537.363L530.228 118.957L516.334 148.315L501.689 68.2479Z" fill="url(#paint8_linear_22_294)"/>
<path d="M558.016 131.539L552.383 178.436H580.923L572.661 80.83L558.016 131.539Z" fill="url(#paint9_linear_22_294)"/>
<path d="M628.989 56.8097L620.727 178.436H637.25L628.989 56.8097Z" fill="url(#paint10_linear_22_294)"/>
<path d="M657.528 105.232L651.519 178.436H678.932L672.173 96.8435L657.528 105.232Z" fill="url(#paint11_linear_22_294)"/>
<path d="M714.606 143.359L710.475 178.436H720.239L714.606 143.359Z" fill="url(#paint12_linear_22_294)"/>
<path d="M771.309 121.626L765.3 178.436H777.317L771.309 121.626Z" fill="url(#paint13_linear_22_294)"/>
<path d="M856.175 136.115L849.04 178.436H865.563L856.175 136.115Z" fill="url(#paint14_linear_22_294)"/>
<path d="M884.339 61.0037L873.073 178.436H938.413L927.523 78.161L913.253 171.954L898.984 72.0607L884.339 61.0037Z" fill="url(#paint15_linear_22_294)"/>
</g>
<path d="M105.145 103.325L90.875 178.817H113.03L105.145 103.325Z" stroke="#940E0E" stroke-width="3"/>
<path d="M133.684 62.1476L124.296 178.817H143.823L133.684 62.1476Z" stroke="#940E0E" stroke-width="3"/>
<path d="M161.847 90.7432L152.835 178.817H206.909L205.407 162.804L190.011 95.6997L176.117 175.767L161.847 90.7432Z" stroke="#940E0E" stroke-width="3"/>
<path d="M232.82 139.928L228.689 178.817H312.053L304.543 62.1476L276.379 129.633L261.359 103.325L247.089 109.044L232.82 139.928Z" stroke="#940E0E" stroke-width="3"/>
<path d="M360.495 75.1109L347.352 178.817H372.887L360.495 75.1109Z" stroke="#940E0E" stroke-width="3"/>
<path d="M402.552 131.921L380.022 178.817H420.953L417.198 159.373L402.552 131.921Z" stroke="#940E0E" stroke-width="3"/>
<path d="M445.737 99.8937L437.851 178.817H453.622L445.737 99.8937Z" stroke="#940E0E" stroke-width="3"/>
<path d="M473.9 175.386L473.149 178.817H475.027L473.9 175.386Z" stroke="#940E0E" stroke-width="3"/>
<path d="M502.064 68.6293L494.178 178.817H537.738L530.603 119.339L516.709 148.697L502.064 68.6293Z" stroke="#940E0E" stroke-width="3"/>
<path d="M558.391 131.921L552.758 178.817H581.298L573.036 81.2113L558.391 131.921Z" stroke="#940E0E" stroke-width="3"/>
<path d="M629.364 57.191L621.102 178.817H637.625L629.364 57.191Z" stroke="#940E0E" stroke-width="3"/>
<path d="M657.903 105.613L651.894 178.817H679.307L672.548 97.2248L657.903 105.613Z" stroke="#940E0E" stroke-width="3"/>
<path d="M714.981 143.74L710.85 178.817H720.614L714.981 143.74Z" stroke="#940E0E" stroke-width="3"/>
<path d="M771.684 122.008L765.675 178.817H777.692L771.684 122.008Z" stroke="#940E0E" stroke-width="3"/>
<path d="M856.55 136.496L849.415 178.817H865.938L856.55 136.496Z" stroke="#940E0E" stroke-width="3"/>
<path d="M884.714 61.3851L873.448 178.817H938.788L927.898 78.5424L913.628 172.336L899.359 72.442L884.714 61.3851Z" stroke="#940E0E" stroke-width="3"/>
<path d="M119.039 239.44L113.031 178.818H123.921H143.448H152.836H206.534H228.314H311.679H347.353H373.263H379.271H420.203H437.476H453.248H472.399H474.652H494.179H537.363H552.384H581.299H620.728H638.001H651.52H678.557H710.851H720.615H765.301H777.317H849.041H865.563H873.074L870.821 201.313L865.563 178.818H849.041L842.657 215.42L827.636 190.637L814.118 253.929L800.224 223.427L785.579 261.173L777.317 178.818H765.301L757.415 255.835L742.77 218.089L728.876 229.527L720.615 178.818H710.851L700.337 268.417L686.443 274.517L678.557 178.818H651.52L644.385 266.892L638.001 178.818H620.728L615.095 255.835L600.825 271.848L587.307 249.734L581.299 178.818H552.384L544.498 239.059L537.363 178.818H494.179L487.795 260.029L474.652 178.818H472.399L459.256 239.821L453.248 178.818H437.476L431.092 245.54L420.203 178.818H379.271L374.39 188.731L373.263 178.818H347.353L346.226 186.443L331.957 238.296L317.687 264.223L311.679 178.818H228.314L218.551 269.942L206.534 178.818H152.836L147.954 226.858L143.448 178.818H123.921L119.039 239.44Z" fill="url(#paint16_linear_22_294)"/>
<path d="M113.031 178.818L119.039 239.44L123.921 178.818H143.448L147.954 226.858L152.836 178.818H206.534L218.551 269.942L228.314 178.818H311.679L317.687 264.223L331.957 238.296L346.226 186.443L347.353 178.818H373.263L374.39 188.731L379.271 178.818H420.203L431.092 245.54L437.476 178.818H453.248L459.256 239.821L472.399 178.818H474.652L487.795 260.029L494.179 178.818H537.363L544.498 239.059L552.384 178.818H581.299L587.307 249.734L600.825 271.848L615.095 255.835L620.728 178.818H638.001L644.385 266.892L651.52 178.818H678.557L686.443 274.517L700.337 268.417L710.851 178.818H720.615L728.876 229.527L742.77 218.089L757.415 255.835L765.301 178.818H777.317L785.579 261.173L800.224 223.427L814.118 253.929L827.636 190.637L842.657 215.42L849.041 178.818H865.563L870.821 201.313L873.074 178.818H113.031Z" stroke="#49B338"/>
</g>
<path d="M938.288 137.259C938.288 139.095 936.823 140.571 935.033 140.571C933.242 140.571 931.777 139.095 931.777 137.259C931.777 135.422 933.242 133.946 935.033 133.946C936.823 133.946 938.288 135.422 938.288 137.259Z" fill="#6D1B1B" stroke="#B33838"/>
<rect x="90.125" y="28.9769" width="0.749853" height="299.681" fill="#8B8B8B"/>
<rect x="1215.92" y="348.485" width="9.15059" height="1110.02" transform="rotate(90 1215.92 348.485)" fill="#9C9C9C"/>
<rect x="1215.92" y="348.485" width="9.15059" height="223.056" transform="rotate(90 1215.92 348.485)" fill="#BB2E2E"/>
<g clip-path="url(#clip1_22_294)">
<path d="M90.5015 357.286C94.2518 357.286 97.2921 354.199 97.2921 350.391C97.2921 346.583 94.2518 343.496 90.5015 343.496C86.7512 343.496 83.7109 346.583 83.7109 350.391C83.7109 354.199 86.7512 357.286 90.5015 357.286Z" stroke="#E9D4D4" stroke-width="2" stroke-linecap="round" stroke-linejoin="round"/>
<path d="M90.5 347.436V350.391L91.9551 351.868" stroke="#E9D4D4" stroke-width="2" stroke-linecap="round" stroke-linejoin="round"/>
<path d="M94.877 355.66L94.5375 359.433C94.4938 359.924 94.2702 360.381 93.911 360.713C93.5518 361.044 93.083 361.227 92.5973 361.225H88.3969C87.9112 361.227 87.4424 361.044 87.0832 360.713C86.724 360.381 86.5004 359.924 86.4567 359.433L86.1172 355.66M86.1269 345.121L86.4664 341.349C86.51 340.86 86.7322 340.404 87.0893 340.073C87.4465 339.741 87.9129 339.557 88.3969 339.556H92.6167C93.1024 339.554 93.5712 339.737 93.9304 340.069C94.2896 340.401 94.5132 340.858 94.5569 341.349L94.8964 345.121" stroke="#E9D4D4" stroke-width="2" stroke-linecap="round" stroke-linejoin="round"/>
</g>
<rect x="1053.7" y="54.6796" width="137.439" height="62.1699" rx="5" fill="#BB2E2E"/>
<path d="M1082.86 85.932C1084.4 86.292 1085.59 87.036 1086.43 88.164C1087.29 89.268 1087.72 90.552 1087.72 92.016C1087.72 94.248 1086.98 95.976 1085.49 97.2C1084.03 98.4 1081.92 99 1079.16 99H1065.8V73.512H1078.8C1081.39 73.512 1083.43 74.076 1084.92 75.204C1086.4 76.332 1087.15 77.976 1087.15 80.136C1087.15 81.624 1086.75 82.884 1085.96 83.916C1085.19 84.924 1084.16 85.596 1082.86 85.932ZM1073.79 83.448H1076.89C1077.61 83.448 1078.14 83.304 1078.47 83.016C1078.83 82.728 1079.01 82.284 1079.01 81.684C1079.01 81.06 1078.83 80.604 1078.47 80.316C1078.14 80.004 1077.61 79.848 1076.89 79.848H1073.79V83.448ZM1077.43 92.592C1078.15 92.592 1078.68 92.46 1079.01 92.196C1079.37 91.908 1079.55 91.452 1079.55 90.828C1079.55 89.604 1078.84 88.992 1077.43 88.992H1073.79V92.592H1077.43ZM1094.44 77.076C1093.05 77.076 1091.93 76.704 1091.09 75.96C1090.25 75.216 1089.83 74.28 1089.83 73.152C1089.83 72 1090.25 71.052 1091.09 70.308C1091.93 69.54 1093.05 69.156 1094.44 69.156C1095.81 69.156 1096.91 69.54 1097.75 70.308C1098.59 71.052 1099.01 72 1099.01 73.152C1099.01 74.28 1098.59 75.216 1097.75 75.96C1096.91 76.704 1095.81 77.076 1094.44 77.076ZM1098.4 78.696V99H1090.41V78.696H1098.4ZM1100.93 88.848C1100.93 86.712 1101.29 84.864 1102.01 83.304C1102.75 81.72 1103.76 80.52 1105.03 79.704C1106.31 78.864 1107.73 78.444 1109.32 78.444C1110.64 78.444 1111.77 78.72 1112.7 79.272C1113.66 79.8 1114.39 80.532 1114.9 81.468V72.36H1122.89V99H1114.9V96.228C1114.39 97.164 1113.66 97.908 1112.7 98.46C1111.77 98.988 1110.64 99.252 1109.32 99.252C1107.73 99.252 1106.31 98.844 1105.03 98.028C1103.76 97.188 1102.75 95.988 1102.01 94.428C1101.29 92.844 1100.93 90.984 1100.93 88.848ZM1114.93 88.848C1114.93 87.768 1114.66 86.928 1114.11 86.328C1113.55 85.728 1112.85 85.428 1111.98 85.428C1111.12 85.428 1110.41 85.728 1109.86 86.328C1109.31 86.928 1109.03 87.768 1109.03 88.848C1109.03 89.928 1109.31 90.768 1109.86 91.368C1110.41 91.968 1111.12 92.268 1111.98 92.268C1112.85 92.268 1113.55 91.968 1114.11 91.368C1114.66 90.768 1114.93 89.928 1114.93 88.848Z" fill="white"/>
<path d="M1137.87 79.14H1134.22L1133.55 81H1132.4L1135.42 72.684H1136.68L1139.69 81H1138.54L1137.87 79.14ZM1137.56 78.252L1136.04 74.028L1134.53 78.252H1137.56ZM1143.72 74.316C1144.29 74.316 1144.79 74.44 1145.21 74.688C1145.64 74.936 1145.96 75.248 1146.17 75.624V74.424H1147.27V81.144C1147.27 81.744 1147.15 82.276 1146.89 82.74C1146.63 83.212 1146.27 83.58 1145.79 83.844C1145.31 84.108 1144.76 84.24 1144.13 84.24C1143.27 84.24 1142.55 84.036 1141.97 83.628C1141.39 83.22 1141.05 82.664 1140.95 81.96H1142.03C1142.15 82.36 1142.4 82.68 1142.77 82.92C1143.15 83.168 1143.6 83.292 1144.13 83.292C1144.73 83.292 1145.22 83.104 1145.59 82.728C1145.98 82.352 1146.17 81.824 1146.17 81.144V79.764C1145.95 80.148 1145.63 80.468 1145.21 80.724C1144.79 80.98 1144.29 81.108 1143.72 81.108C1143.14 81.108 1142.61 80.964 1142.13 80.676C1141.65 80.388 1141.28 79.984 1141.01 79.464C1140.74 78.944 1140.6 78.352 1140.6 77.688C1140.6 77.016 1140.74 76.428 1141.01 75.924C1141.28 75.412 1141.65 75.016 1142.13 74.736C1142.61 74.456 1143.14 74.316 1143.72 74.316ZM1146.17 77.7C1146.17 77.204 1146.07 76.772 1145.87 76.404C1145.67 76.036 1145.4 75.756 1145.05 75.564C1144.72 75.364 1144.35 75.264 1143.94 75.264C1143.53 75.264 1143.16 75.36 1142.82 75.552C1142.49 75.744 1142.22 76.024 1142.02 76.392C1141.82 76.76 1141.72 77.192 1141.72 77.688C1141.72 78.192 1141.82 78.632 1142.02 79.008C1142.22 79.376 1142.49 79.66 1142.82 79.86C1143.16 80.052 1143.53 80.148 1143.94 80.148C1144.35 80.148 1144.72 80.052 1145.05 79.86C1145.4 79.66 1145.67 79.376 1145.87 79.008C1146.07 78.632 1146.17 78.196 1146.17 77.7ZM1148.71 77.688C1148.71 77.016 1148.85 76.428 1149.12 75.924C1149.39 75.412 1149.76 75.016 1150.24 74.736C1150.72 74.456 1151.25 74.316 1151.83 74.316C1152.41 74.316 1152.91 74.44 1153.33 74.688C1153.76 74.936 1154.07 75.248 1154.28 75.624V74.424H1155.38V81H1154.28V79.776C1154.06 80.16 1153.74 80.48 1153.31 80.736C1152.88 80.984 1152.39 81.108 1151.82 81.108C1151.24 81.108 1150.71 80.964 1150.24 80.676C1149.76 80.388 1149.39 79.984 1149.12 79.464C1148.85 78.944 1148.71 78.352 1148.71 77.688ZM1154.28 77.7C1154.28 77.204 1154.18 76.772 1153.98 76.404C1153.78 76.036 1153.51 75.756 1153.16 75.564C1152.83 75.364 1152.46 75.264 1152.05 75.264C1151.64 75.264 1151.27 75.36 1150.93 75.552C1150.6 75.744 1150.33 76.024 1150.13 76.392C1149.93 76.76 1149.83 77.192 1149.83 77.688C1149.83 78.192 1149.93 78.632 1150.13 79.008C1150.33 79.376 1150.6 79.66 1150.93 79.86C1151.27 80.052 1151.64 80.148 1152.05 80.148C1152.46 80.148 1152.83 80.052 1153.16 79.86C1153.51 79.66 1153.78 79.376 1153.98 79.008C1154.18 78.632 1154.28 78.196 1154.28 77.7ZM1157.79 73.356C1157.58 73.356 1157.41 73.284 1157.26 73.14C1157.12 72.996 1157.05 72.82 1157.05 72.612C1157.05 72.404 1157.12 72.228 1157.26 72.084C1157.41 71.94 1157.58 71.868 1157.79 71.868C1157.99 71.868 1158.16 71.94 1158.3 72.084C1158.44 72.228 1158.51 72.404 1158.51 72.612C1158.51 72.82 1158.44 72.996 1158.3 73.14C1158.16 73.284 1157.99 73.356 1157.79 73.356ZM1158.32 74.424V81H1157.23V74.424H1158.32ZM1163.39 74.304C1164.19 74.304 1164.83 74.548 1165.33 75.036C1165.83 75.516 1166.07 76.212 1166.07 77.124V81H1164.99V77.28C1164.99 76.624 1164.83 76.124 1164.5 75.78C1164.17 75.428 1163.73 75.252 1163.16 75.252C1162.58 75.252 1162.12 75.432 1161.78 75.792C1161.44 76.152 1161.27 76.676 1161.27 77.364V81H1160.18V74.424H1161.27V75.36C1161.49 75.024 1161.78 74.764 1162.15 74.58C1162.53 74.396 1162.94 74.304 1163.39 74.304ZM1170.19 81.108C1169.68 81.108 1169.23 81.024 1168.83 80.856C1168.43 80.68 1168.11 80.44 1167.88 80.136C1167.65 79.824 1167.52 79.468 1167.5 79.068H1168.63C1168.66 79.396 1168.81 79.664 1169.08 79.872C1169.36 80.08 1169.73 80.184 1170.17 80.184C1170.59 80.184 1170.92 80.092 1171.16 79.908C1171.4 79.724 1171.52 79.492 1171.52 79.212C1171.52 78.924 1171.39 78.712 1171.13 78.576C1170.88 78.432 1170.48 78.292 1169.95 78.156C1169.46 78.028 1169.06 77.9 1168.75 77.772C1168.44 77.636 1168.18 77.44 1167.95 77.184C1167.74 76.92 1167.63 76.576 1167.63 76.152C1167.63 75.816 1167.73 75.508 1167.93 75.228C1168.13 74.948 1168.41 74.728 1168.78 74.568C1169.15 74.4 1169.57 74.316 1170.04 74.316C1170.77 74.316 1171.36 74.5 1171.81 74.868C1172.25 75.236 1172.49 75.74 1172.53 76.38H1171.43C1171.41 76.036 1171.27 75.76 1171.01 75.552C1170.77 75.344 1170.43 75.24 1170.01 75.24C1169.61 75.24 1169.3 75.324 1169.07 75.492C1168.84 75.66 1168.72 75.88 1168.72 76.152C1168.72 76.368 1168.79 76.548 1168.93 76.692C1169.07 76.828 1169.25 76.94 1169.45 77.028C1169.67 77.108 1169.97 77.2 1170.34 77.304C1170.81 77.432 1171.2 77.56 1171.49 77.688C1171.79 77.808 1172.04 77.992 1172.25 78.24C1172.47 78.488 1172.58 78.812 1172.59 79.212C1172.59 79.572 1172.49 79.896 1172.29 80.184C1172.09 80.472 1171.8 80.7 1171.43 80.868C1171.07 81.028 1170.66 81.108 1170.19 81.108ZM1175.46 75.324V79.2C1175.46 79.52 1175.53 79.748 1175.66 79.884C1175.8 80.012 1176.04 80.076 1176.37 80.076H1177.18V81H1176.19C1175.58 81 1175.13 80.86 1174.82 80.58C1174.52 80.3 1174.37 79.84 1174.37 79.2V75.324H1173.52V74.424H1174.37V72.768H1175.46V74.424H1177.18V75.324H1175.46ZM1138.34 93.24C1138.18 92.96 1137.96 92.748 1137.68 92.604C1137.4 92.452 1137.06 92.376 1136.68 92.376C1136.02 92.376 1135.48 92.596 1135.08 93.036C1134.68 93.468 1134.48 94.048 1134.48 94.776C1134.48 95.552 1134.69 96.16 1135.11 96.6C1135.53 97.032 1136.11 97.248 1136.85 97.248C1137.35 97.248 1137.78 97.12 1138.12 96.864C1138.47 96.608 1138.73 96.24 1138.89 95.76H1136.28V94.248H1140.75V96.156C1140.6 96.668 1140.34 97.144 1139.97 97.584C1139.61 98.024 1139.15 98.38 1138.59 98.652C1138.03 98.924 1137.4 99.06 1136.69 99.06C1135.86 99.06 1135.12 98.88 1134.46 98.52C1133.81 98.152 1133.3 97.644 1132.94 96.996C1132.58 96.348 1132.4 95.608 1132.4 94.776C1132.4 93.944 1132.58 93.204 1132.94 92.556C1133.3 91.9 1133.81 91.392 1134.46 91.032C1135.11 90.664 1135.85 90.48 1136.68 90.48C1137.69 90.48 1138.54 90.724 1139.22 91.212C1139.92 91.7 1140.38 92.376 1140.6 93.24H1138.34ZM1143.94 93.42C1144.18 93.052 1144.48 92.764 1144.84 92.556C1145.2 92.34 1145.6 92.232 1146.04 92.232V94.404H1145.47C1144.96 94.404 1144.58 94.516 1144.32 94.74C1144.06 94.956 1143.94 95.34 1143.94 95.892V99H1141.88V92.304H1143.94V93.42ZM1153.33 95.544C1153.33 95.736 1153.32 95.936 1153.29 96.144H1148.65C1148.68 96.56 1148.81 96.88 1149.05 97.104C1149.29 97.32 1149.58 97.428 1149.92 97.428C1150.43 97.428 1150.79 97.212 1150.99 96.78H1153.17C1153.06 97.22 1152.86 97.616 1152.56 97.968C1152.27 98.32 1151.91 98.596 1151.47 98.796C1151.03 98.996 1150.54 99.096 1149.99 99.096C1149.34 99.096 1148.75 98.956 1148.24 98.676C1147.73 98.396 1147.33 97.996 1147.04 97.476C1146.75 96.956 1146.61 96.348 1146.61 95.652C1146.61 94.956 1146.75 94.348 1147.03 93.828C1147.32 93.308 1147.72 92.908 1148.23 92.628C1148.74 92.348 1149.33 92.208 1149.99 92.208C1150.64 92.208 1151.22 92.344 1151.72 92.616C1152.23 92.888 1152.62 93.276 1152.9 93.78C1153.19 94.284 1153.33 94.872 1153.33 95.544ZM1151.23 95.004C1151.23 94.652 1151.11 94.372 1150.87 94.164C1150.63 93.956 1150.33 93.852 1149.97 93.852C1149.63 93.852 1149.33 93.952 1149.09 94.152C1148.86 94.352 1148.72 94.636 1148.66 95.004H1151.23ZM1160.72 95.544C1160.72 95.736 1160.71 95.936 1160.69 96.144H1156.04C1156.08 96.56 1156.21 96.88 1156.44 97.104C1156.68 97.32 1156.97 97.428 1157.32 97.428C1157.83 97.428 1158.18 97.212 1158.38 96.78H1160.57C1160.46 97.22 1160.25 97.616 1159.96 97.968C1159.67 98.32 1159.3 98.596 1158.86 98.796C1158.42 98.996 1157.93 99.096 1157.39 99.096C1156.73 99.096 1156.15 98.956 1155.64 98.676C1155.12 98.396 1154.72 97.996 1154.44 97.476C1154.15 96.956 1154 96.348 1154 95.652C1154 94.956 1154.14 94.348 1154.42 93.828C1154.71 93.308 1155.11 92.908 1155.62 92.628C1156.14 92.348 1156.72 92.208 1157.39 92.208C1158.04 92.208 1158.61 92.344 1159.12 92.616C1159.62 92.888 1160.01 93.276 1160.29 93.78C1160.58 94.284 1160.72 94.872 1160.72 95.544ZM1158.62 95.004C1158.62 94.652 1158.5 94.372 1158.26 94.164C1158.02 93.956 1157.72 93.852 1157.36 93.852C1157.02 93.852 1156.73 93.952 1156.49 94.152C1156.26 94.352 1156.11 94.636 1156.06 95.004H1158.62ZM1165.89 92.232C1166.67 92.232 1167.29 92.488 1167.76 93C1168.23 93.504 1168.47 94.2 1168.47 95.088V99H1166.43V95.364C1166.43 94.916 1166.31 94.568 1166.08 94.32C1165.85 94.072 1165.53 93.948 1165.14 93.948C1164.75 93.948 1164.44 94.072 1164.21 94.32C1163.97 94.568 1163.86 94.916 1163.86 95.364V99H1161.81V92.304H1163.86V93.192C1164.07 92.896 1164.35 92.664 1164.7 92.496C1165.05 92.32 1165.45 92.232 1165.89 92.232Z" fill="white"/>
<rect x="1053.7" y="228" width="137.439" height="62.1699" rx="5" fill="#44A63B"/>
<path d="M1082.86 259.252C1084.4 259.612 1085.59 260.356 1086.43 261.484C1087.29 262.588 1087.72 263.872 1087.72 265.336C1087.72 267.568 1086.98 269.296 1085.49 270.52C1084.03 271.72 1081.92 272.32 1079.16 272.32H1065.8V246.832H1078.8C1081.39 246.832 1083.43 247.396 1084.92 248.524C1086.4 249.652 1087.15 251.296 1087.15 253.456C1087.15 254.944 1086.75 256.204 1085.96 257.236C1085.19 258.244 1084.16 258.916 1082.86 259.252ZM1073.79 256.768H1076.89C1077.61 256.768 1078.14 256.624 1078.47 256.336C1078.83 256.048 1079.01 255.604 1079.01 255.004C1079.01 254.38 1078.83 253.924 1078.47 253.636C1078.14 253.324 1077.61 253.168 1076.89 253.168H1073.79V256.768ZM1077.43 265.912C1078.15 265.912 1078.68 265.78 1079.01 265.516C1079.37 265.228 1079.55 264.772 1079.55 264.148C1079.55 262.924 1078.84 262.312 1077.43 262.312H1073.79V265.912H1077.43ZM1094.44 250.396C1093.05 250.396 1091.93 250.024 1091.09 249.28C1090.25 248.536 1089.83 247.6 1089.83 246.472C1089.83 245.32 1090.25 244.372 1091.09 243.628C1091.93 242.86 1093.05 242.476 1094.44 242.476C1095.81 242.476 1096.91 242.86 1097.75 243.628C1098.59 244.372 1099.01 245.32 1099.01 246.472C1099.01 247.6 1098.59 248.536 1097.75 249.28C1096.91 250.024 1095.81 250.396 1094.44 250.396ZM1098.4 252.016V272.32H1090.41V252.016H1098.4ZM1100.93 262.168C1100.93 260.032 1101.29 258.184 1102.01 256.624C1102.75 255.04 1103.76 253.84 1105.03 253.024C1106.31 252.184 1107.73 251.764 1109.32 251.764C1110.64 251.764 1111.77 252.04 1112.7 252.592C1113.66 253.12 1114.39 253.852 1114.9 254.788V245.68H1122.89V272.32H1114.9V269.548C1114.39 270.484 1113.66 271.228 1112.7 271.78C1111.77 272.308 1110.64 272.572 1109.32 272.572C1107.73 272.572 1106.31 272.164 1105.03 271.348C1103.76 270.508 1102.75 269.308 1102.01 267.748C1101.29 266.164 1100.93 264.304 1100.93 262.168ZM1114.93 262.168C1114.93 261.088 1114.66 260.248 1114.11 259.648C1113.55 259.048 1112.85 258.748 1111.98 258.748C1111.12 258.748 1110.41 259.048 1109.86 259.648C1109.31 260.248 1109.03 261.088 1109.03 262.168C1109.03 263.248 1109.31 264.088 1109.86 264.688C1110.41 265.288 1111.12 265.588 1111.98 265.588C1112.85 265.588 1113.55 265.288 1114.11 264.688C1114.66 264.088 1114.93 263.248 1114.93 262.168Z" fill="white"/>
<path d="M1137.87 252.46H1134.22L1133.55 254.32H1132.4L1135.42 246.004H1136.68L1139.69 254.32H1138.54L1137.87 252.46ZM1137.56 251.572L1136.04 247.348L1134.53 251.572H1137.56ZM1143.72 247.636C1144.29 247.636 1144.79 247.76 1145.21 248.008C1145.64 248.256 1145.96 248.568 1146.17 248.944V247.744H1147.27V254.464C1147.27 255.064 1147.15 255.596 1146.89 256.06C1146.63 256.532 1146.27 256.9 1145.79 257.164C1145.31 257.428 1144.76 257.56 1144.13 257.56C1143.27 257.56 1142.55 257.356 1141.97 256.948C1141.39 256.54 1141.05 255.984 1140.95 255.28H1142.03C1142.15 255.68 1142.4 256 1142.77 256.24C1143.15 256.488 1143.6 256.612 1144.13 256.612C1144.73 256.612 1145.22 256.424 1145.59 256.048C1145.98 255.672 1146.17 255.144 1146.17 254.464V253.084C1145.95 253.468 1145.63 253.788 1145.21 254.044C1144.79 254.3 1144.29 254.428 1143.72 254.428C1143.14 254.428 1142.61 254.284 1142.13 253.996C1141.65 253.708 1141.28 253.304 1141.01 252.784C1140.74 252.264 1140.6 251.672 1140.6 251.008C1140.6 250.336 1140.74 249.748 1141.01 249.244C1141.28 248.732 1141.65 248.336 1142.13 248.056C1142.61 247.776 1143.14 247.636 1143.72 247.636ZM1146.17 251.02C1146.17 250.524 1146.07 250.092 1145.87 249.724C1145.67 249.356 1145.4 249.076 1145.05 248.884C1144.72 248.684 1144.35 248.584 1143.94 248.584C1143.53 248.584 1143.16 248.68 1142.82 248.872C1142.49 249.064 1142.22 249.344 1142.02 249.712C1141.82 250.08 1141.72 250.512 1141.72 251.008C1141.72 251.512 1141.82 251.952 1142.02 252.328C1142.22 252.696 1142.49 252.98 1142.82 253.18C1143.16 253.372 1143.53 253.468 1143.94 253.468C1144.35 253.468 1144.72 253.372 1145.05 253.18C1145.4 252.98 1145.67 252.696 1145.87 252.328C1146.07 251.952 1146.17 251.516 1146.17 251.02ZM1148.71 251.008C1148.71 250.336 1148.85 249.748 1149.12 249.244C1149.39 248.732 1149.76 248.336 1150.24 248.056C1150.72 247.776 1151.25 247.636 1151.83 247.636C1152.41 247.636 1152.91 247.76 1153.33 248.008C1153.76 248.256 1154.07 248.568 1154.28 248.944V247.744H1155.38V254.32H1154.28V253.096C1154.06 253.48 1153.74 253.8 1153.31 254.056C1152.88 254.304 1152.39 254.428 1151.82 254.428C1151.24 254.428 1150.71 254.284 1150.24 253.996C1149.76 253.708 1149.39 253.304 1149.12 252.784C1148.85 252.264 1148.71 251.672 1148.71 251.008ZM1154.28 251.02C1154.28 250.524 1154.18 250.092 1153.98 249.724C1153.78 249.356 1153.51 249.076 1153.16 248.884C1152.83 248.684 1152.46 248.584 1152.05 248.584C1151.64 248.584 1151.27 248.68 1150.93 248.872C1150.6 249.064 1150.33 249.344 1150.13 249.712C1149.93 250.08 1149.83 250.512 1149.83 251.008C1149.83 251.512 1149.93 251.952 1150.13 252.328C1150.33 252.696 1150.6 252.98 1150.93 253.18C1151.27 253.372 1151.64 253.468 1152.05 253.468C1152.46 253.468 1152.83 253.372 1153.16 253.18C1153.51 252.98 1153.78 252.696 1153.98 252.328C1154.18 251.952 1154.28 251.516 1154.28 251.02ZM1157.79 246.676C1157.58 246.676 1157.41 246.604 1157.26 246.46C1157.12 246.316 1157.05 246.14 1157.05 245.932C1157.05 245.724 1157.12 245.548 1157.26 245.404C1157.41 245.26 1157.58 245.188 1157.79 245.188C1157.99 245.188 1158.16 245.26 1158.3 245.404C1158.44 245.548 1158.51 245.724 1158.51 245.932C1158.51 246.14 1158.44 246.316 1158.3 246.46C1158.16 246.604 1157.99 246.676 1157.79 246.676ZM1158.32 247.744V254.32H1157.23V247.744H1158.32ZM1163.39 247.624C1164.19 247.624 1164.83 247.868 1165.33 248.356C1165.83 248.836 1166.07 249.532 1166.07 250.444V254.32H1164.99V250.6C1164.99 249.944 1164.83 249.444 1164.5 249.1C1164.17 248.748 1163.73 248.572 1163.16 248.572C1162.58 248.572 1162.12 248.752 1161.78 249.112C1161.44 249.472 1161.27 249.996 1161.27 250.684V254.32H1160.18V247.744H1161.27V248.68C1161.49 248.344 1161.78 248.084 1162.15 247.9C1162.53 247.716 1162.94 247.624 1163.39 247.624ZM1170.19 254.428C1169.68 254.428 1169.23 254.344 1168.83 254.176C1168.43 254 1168.11 253.76 1167.88 253.456C1167.65 253.144 1167.52 252.788 1167.5 252.388H1168.63C1168.66 252.716 1168.81 252.984 1169.08 253.192C1169.36 253.4 1169.73 253.504 1170.17 253.504C1170.59 253.504 1170.92 253.412 1171.16 253.228C1171.4 253.044 1171.52 252.812 1171.52 252.532C1171.52 252.244 1171.39 252.032 1171.13 251.896C1170.88 251.752 1170.48 251.612 1169.95 251.476C1169.46 251.348 1169.06 251.22 1168.75 251.092C1168.44 250.956 1168.18 250.76 1167.95 250.504C1167.74 250.24 1167.63 249.896 1167.63 249.472C1167.63 249.136 1167.73 248.828 1167.93 248.548C1168.13 248.268 1168.41 248.048 1168.78 247.888C1169.15 247.72 1169.57 247.636 1170.04 247.636C1170.77 247.636 1171.36 247.82 1171.81 248.188C1172.25 248.556 1172.49 249.06 1172.53 249.7H1171.43C1171.41 249.356 1171.27 249.08 1171.01 248.872C1170.77 248.664 1170.43 248.56 1170.01 248.56C1169.61 248.56 1169.3 248.644 1169.07 248.812C1168.84 248.98 1168.72 249.2 1168.72 249.472C1168.72 249.688 1168.79 249.868 1168.93 250.012C1169.07 250.148 1169.25 250.26 1169.45 250.348C1169.67 250.428 1169.97 250.52 1170.34 250.624C1170.81 250.752 1171.2 250.88 1171.49 251.008C1171.79 251.128 1172.04 251.312 1172.25 251.56C1172.47 251.808 1172.58 252.132 1172.59 252.532C1172.59 252.892 1172.49 253.216 1172.29 253.504C1172.09 253.792 1171.8 254.02 1171.43 254.188C1171.07 254.348 1170.66 254.428 1170.19 254.428ZM1175.46 248.644V252.52C1175.46 252.84 1175.53 253.068 1175.66 253.204C1175.8 253.332 1176.04 253.396 1176.37 253.396H1177.18V254.32H1176.19C1175.58 254.32 1175.13 254.18 1174.82 253.9C1174.52 253.62 1174.37 253.16 1174.37 252.52V248.644H1173.52V247.744H1174.37V246.088H1175.46V247.744H1177.18V248.644H1175.46ZM1137.04 272.32L1135.29 269.14H1134.8V272.32H1132.74V263.896H1136.19C1136.85 263.896 1137.42 264.012 1137.88 264.244C1138.35 264.476 1138.7 264.796 1138.94 265.204C1139.17 265.604 1139.28 266.052 1139.28 266.548C1139.28 267.108 1139.12 267.608 1138.8 268.048C1138.49 268.488 1138.03 268.8 1137.41 268.984L1139.36 272.32H1137.04ZM1134.8 267.688H1136.07C1136.44 267.688 1136.72 267.596 1136.91 267.412C1137.1 267.228 1137.2 266.968 1137.2 266.632C1137.2 266.312 1137.1 266.06 1136.91 265.876C1136.72 265.692 1136.44 265.6 1136.07 265.6H1134.8V267.688ZM1146.88 268.864C1146.88 269.056 1146.87 269.256 1146.85 269.464H1142.2C1142.24 269.88 1142.37 270.2 1142.6 270.424C1142.84 270.64 1143.13 270.748 1143.48 270.748C1143.99 270.748 1144.34 270.532 1144.54 270.1H1146.73C1146.62 270.54 1146.41 270.936 1146.12 271.288C1145.83 271.64 1145.46 271.916 1145.02 272.116C1144.58 272.316 1144.09 272.416 1143.55 272.416C1142.89 272.416 1142.31 272.276 1141.8 271.996C1141.28 271.716 1140.88 271.316 1140.6 270.796C1140.31 270.276 1140.16 269.668 1140.16 268.972C1140.16 268.276 1140.3 267.668 1140.58 267.148C1140.87 266.628 1141.27 266.228 1141.78 265.948C1142.3 265.668 1142.88 265.528 1143.55 265.528C1144.2 265.528 1144.77 265.664 1145.28 265.936C1145.78 266.208 1146.17 266.596 1146.45 267.1C1146.74 267.604 1146.88 268.192 1146.88 268.864ZM1144.78 268.324C1144.78 267.972 1144.66 267.692 1144.42 267.484C1144.18 267.276 1143.88 267.172 1143.52 267.172C1143.18 267.172 1142.89 267.272 1142.65 267.472C1142.42 267.672 1142.27 267.956 1142.22 268.324H1144.78ZM1147.56 268.96C1147.56 268.272 1147.69 267.668 1147.94 267.148C1148.21 266.628 1148.56 266.228 1149.01 265.948C1149.46 265.668 1149.96 265.528 1150.51 265.528C1150.95 265.528 1151.35 265.62 1151.71 265.804C1152.08 265.988 1152.37 266.236 1152.57 266.548V263.44H1154.63V272.32H1152.57V271.36C1152.38 271.68 1152.11 271.936 1151.75 272.128C1151.39 272.32 1150.98 272.416 1150.51 272.416C1149.96 272.416 1149.46 272.276 1149.01 271.996C1148.56 271.708 1148.21 271.304 1147.94 270.784C1147.69 270.256 1147.56 269.648 1147.56 268.96ZM1152.57 268.972C1152.57 268.46 1152.43 268.056 1152.14 267.76C1151.86 267.464 1151.52 267.316 1151.11 267.316C1150.7 267.316 1150.35 267.464 1150.07 267.76C1149.79 268.048 1149.65 268.448 1149.65 268.96C1149.65 269.472 1149.79 269.88 1150.07 270.184C1150.35 270.48 1150.7 270.628 1151.11 270.628C1151.52 270.628 1151.86 270.48 1152.14 270.184C1152.43 269.888 1152.57 269.484 1152.57 268.972Z" fill="white"/>
<rect x="979.344" y="179.199" width="888.469" height="0.762552" transform="rotate(180 979.344 179.199)" fill="url(#paint17_linear_22_294)"/>
<path d="M1156.34 176.149C1156.34 193.299 1142.65 207.176 1125.79 207.176C1108.94 207.176 1095.25 193.299 1095.25 176.149C1095.25 158.999 1108.94 145.122 1125.79 145.122C1142.65 145.122 1156.34 158.999 1156.34 176.149Z" stroke="white" stroke-width="2"/>
<rect x="1124.29" y="140.309" width="1.50195" height="5.33785" fill="white"/>
<rect x="1122.04" y="140.309" width="6.0083" height="1.5251" fill="white"/>
<path fill-rule="evenodd" clip-rule="evenodd" d="M1094.26 176.911C1094.66 194.247 1108.62 208.176 1125.79 208.176C1143.21 208.176 1157.34 193.837 1157.34 176.149C1157.34 158.461 1143.21 144.122 1125.79 144.122C1125.29 144.122 1124.79 144.134 1124.29 144.157V146.16C1124.79 146.135 1125.29 146.122 1125.79 146.122C1142.08 146.122 1155.34 159.536 1155.34 176.149C1155.34 192.761 1142.08 206.176 1125.79 206.176C1109.76 206.176 1096.66 193.17 1096.26 176.911H1094.26Z" fill="#D83A3A"/>
<defs>
<linearGradient id="paint0_linear_22_294" x1="514.456" y1="56.8097" x2="514.456" y2="178.436" gradientUnits="userSpaceOnUse">
<stop stop-color="#940E0E"/>
<stop offset="1" stop-color="#1F1F1F"/>
</linearGradient>
<linearGradient id="paint1_linear_22_294" x1="514.456" y1="56.8097" x2="514.456" y2="178.436" gradientUnits="userSpaceOnUse">
<stop stop-color="#940E0E"/>
<stop offset="1" stop-color="#1F1F1F"/>
</linearGradient>
<linearGradient id="paint2_linear_22_294" x1="514.456" y1="56.8097" x2="514.456" y2="178.436" gradientUnits="userSpaceOnUse">
<stop stop-color="#940E0E"/>
<stop offset="1" stop-color="#1F1F1F"/>
</linearGradient>
<linearGradient id="paint3_linear_22_294" x1="514.456" y1="56.8097" x2="514.456" y2="178.436" gradientUnits="userSpaceOnUse">
<stop stop-color="#940E0E"/>
<stop offset="1" stop-color="#1F1F1F"/>
</linearGradient>
<linearGradient id="paint4_linear_22_294" x1="514.456" y1="56.8097" x2="514.456" y2="178.436" gradientUnits="userSpaceOnUse">
<stop stop-color="#940E0E"/>
<stop offset="1" stop-color="#1F1F1F"/>
</linearGradient>
<linearGradient id="paint5_linear_22_294" x1="514.456" y1="56.8097" x2="514.456" y2="178.436" gradientUnits="userSpaceOnUse">
<stop stop-color="#940E0E"/>
<stop offset="1" stop-color="#1F1F1F"/>
</linearGradient>
<linearGradient id="paint6_linear_22_294" x1="514.456" y1="56.8097" x2="514.456" y2="178.436" gradientUnits="userSpaceOnUse">
<stop stop-color="#940E0E"/>
<stop offset="1" stop-color="#1F1F1F"/>
</linearGradient>
<linearGradient id="paint7_linear_22_294" x1="514.456" y1="56.8097" x2="514.456" y2="178.436" gradientUnits="userSpaceOnUse">
<stop stop-color="#940E0E"/>
<stop offset="1" stop-color="#1F1F1F"/>
</linearGradient>
<linearGradient id="paint8_linear_22_294" x1="514.456" y1="56.8097" x2="514.456" y2="178.436" gradientUnits="userSpaceOnUse">
<stop stop-color="#940E0E"/>
<stop offset="1" stop-color="#1F1F1F"/>
</linearGradient>
<linearGradient id="paint9_linear_22_294" x1="514.456" y1="56.8097" x2="514.456" y2="178.436" gradientUnits="userSpaceOnUse">
<stop stop-color="#940E0E"/>
<stop offset="1" stop-color="#1F1F1F"/>
</linearGradient>
<linearGradient id="paint10_linear_22_294" x1="514.456" y1="56.8097" x2="514.456" y2="178.436" gradientUnits="userSpaceOnUse">
<stop stop-color="#940E0E"/>
<stop offset="1" stop-color="#1F1F1F"/>
</linearGradient>
<linearGradient id="paint11_linear_22_294" x1="514.456" y1="56.8097" x2="514.456" y2="178.436" gradientUnits="userSpaceOnUse">
<stop stop-color="#940E0E"/>
<stop offset="1" stop-color="#1F1F1F"/>
</linearGradient>
<linearGradient id="paint12_linear_22_294" x1="514.456" y1="56.8097" x2="514.456" y2="178.436" gradientUnits="userSpaceOnUse">
<stop stop-color="#940E0E"/>
<stop offset="1" stop-color="#1F1F1F"/>
</linearGradient>
<linearGradient id="paint13_linear_22_294" x1="514.456" y1="56.8097" x2="514.456" y2="178.436" gradientUnits="userSpaceOnUse">
<stop stop-color="#940E0E"/>
<stop offset="1" stop-color="#1F1F1F"/>
</linearGradient>
<linearGradient id="paint14_linear_22_294" x1="514.456" y1="56.8097" x2="514.456" y2="178.436" gradientUnits="userSpaceOnUse">
<stop stop-color="#940E0E"/>
<stop offset="1" stop-color="#1F1F1F"/>
</linearGradient>
<linearGradient id="paint15_linear_22_294" x1="514.456" y1="56.8097" x2="514.456" y2="178.436" gradientUnits="userSpaceOnUse">
<stop stop-color="#940E0E"/>
<stop offset="1" stop-color="#1F1F1F"/>
</linearGradient>
<linearGradient id="paint16_linear_22_294" x1="467.893" y1="274.517" x2="467.893" y2="179.199" gradientUnits="userSpaceOnUse">
<stop stop-color="#1C4318"/>
<stop offset="1" stop-color="#1B1E2A"/>
</linearGradient>
<linearGradient id="paint17_linear_22_294" x1="1867.81" y1="179.199" x2="979.344" y2="179.199" gradientUnits="userSpaceOnUse">
<stop stop-color="#8B8B8B"/>
<stop offset="1" stop-color="#1C1C1C"/>
</linearGradient>
<clipPath id="clip0_22_294">
<rect width="934.281" height="284.43" fill="white" transform="matrix(1 0 0 -1 0 284.43)"/>
</clipPath>
<clipPath id="clip1_22_294">
<rect width="23.2819" height="23.639" fill="white" transform="translate(78.8594 338.571)"/>
</clipPath>
</defs>
</svg>
