<svg width="1404" height="710" viewBox="0 0 1404 710" fill="none" xmlns="http://www.w3.org/2000/svg">
<g opacity="0.13" filter="url(#filter0_d_22_327)">
<rect x="88" y="84" width="1228" height="533.02" rx="31" fill="#68648E"/>
</g>
<path d="M219.943 216.632H215.751L215.079 218.616H212.215L216.279 207.384H219.447L223.511 218.616H220.615L219.943 216.632ZM219.239 214.52L217.847 210.408L216.471 214.52H219.239ZM227.484 206.776V218.616H224.748V206.776H227.484ZM232.202 210.952C232.458 210.536 232.826 210.2 233.306 209.944C233.786 209.688 234.336 209.56 234.954 209.56C235.69 209.56 236.357 209.746 236.954 210.12C237.552 210.493 238.021 211.026 238.362 211.72C238.714 212.413 238.89 213.218 238.89 214.136C238.89 215.053 238.714 215.864 238.362 216.568C238.021 217.261 237.552 217.8 236.954 218.184C236.357 218.557 235.69 218.744 234.954 218.744C234.325 218.744 233.776 218.621 233.306 218.376C232.837 218.12 232.469 217.784 232.202 217.368V218.616H229.466V206.776H232.202V210.952ZM236.106 214.136C236.106 213.453 235.914 212.92 235.53 212.536C235.157 212.141 234.693 211.944 234.138 211.944C233.594 211.944 233.13 212.141 232.746 212.536C232.373 212.93 232.186 213.469 232.186 214.152C232.186 214.834 232.373 215.373 232.746 215.768C233.13 216.162 233.594 216.36 234.138 216.36C234.682 216.36 235.146 216.162 235.53 215.768C235.914 215.362 236.106 214.818 236.106 214.136ZM248.742 214.008C248.742 214.264 248.726 214.53 248.694 214.808H242.502C242.544 215.362 242.72 215.789 243.03 216.088C243.35 216.376 243.739 216.52 244.198 216.52C244.88 216.52 245.355 216.232 245.622 215.656H248.534C248.384 216.242 248.112 216.77 247.718 217.24C247.334 217.709 246.848 218.077 246.262 218.344C245.675 218.61 245.019 218.744 244.294 218.744C243.419 218.744 242.64 218.557 241.958 218.184C241.275 217.81 240.742 217.277 240.358 216.584C239.974 215.89 239.782 215.08 239.782 214.152C239.782 213.224 239.968 212.413 240.342 211.72C240.726 211.026 241.259 210.493 241.942 210.12C242.624 209.746 243.408 209.56 244.294 209.56C245.158 209.56 245.926 209.741 246.598 210.104C247.27 210.466 247.792 210.984 248.166 211.656C248.55 212.328 248.742 213.112 248.742 214.008ZM245.942 213.288C245.942 212.818 245.782 212.445 245.462 212.168C245.142 211.89 244.742 211.752 244.262 211.752C243.803 211.752 243.414 211.885 243.094 212.152C242.784 212.418 242.592 212.797 242.518 213.288H245.942ZM252.921 211.176C253.241 210.685 253.641 210.301 254.121 210.024C254.601 209.736 255.134 209.592 255.721 209.592V212.488H254.969C254.286 212.488 253.774 212.637 253.433 212.936C253.092 213.224 252.921 213.736 252.921 214.472V218.616H250.185V209.688H252.921V211.176ZM262.005 216.296V218.616H260.613C259.621 218.616 258.847 218.376 258.293 217.896C257.738 217.405 257.461 216.61 257.461 215.512V211.96H256.373V209.688H257.461V207.512H260.197V209.688H261.989V211.96H260.197V215.544C260.197 215.81 260.261 216.002 260.389 216.12C260.517 216.237 260.73 216.296 261.029 216.296H262.005ZM269.655 209.576V211.848H273.319V213.96H269.655V216.424H273.799V218.616H266.919V207.384H273.799V209.576H269.655ZM275.032 214.136C275.032 213.218 275.202 212.413 275.544 211.72C275.896 211.026 276.37 210.493 276.968 210.12C277.565 209.746 278.232 209.56 278.968 209.56C279.597 209.56 280.146 209.688 280.616 209.944C281.096 210.2 281.464 210.536 281.72 210.952V209.688H284.456V218.616H281.72V217.352C281.453 217.768 281.08 218.104 280.6 218.36C280.13 218.616 279.581 218.744 278.952 218.744C278.226 218.744 277.565 218.557 276.968 218.184C276.37 217.8 275.896 217.261 275.544 216.568C275.202 215.864 275.032 215.053 275.032 214.136ZM281.72 214.152C281.72 213.469 281.528 212.93 281.144 212.536C280.77 212.141 280.312 211.944 279.768 211.944C279.224 211.944 278.76 212.141 278.376 212.536C278.002 212.92 277.816 213.453 277.816 214.136C277.816 214.818 278.002 215.362 278.376 215.768C278.76 216.162 279.224 216.36 279.768 216.36C280.312 216.36 280.77 216.162 281.144 215.768C281.528 215.373 281.72 214.834 281.72 214.152ZM289.171 211.176C289.491 210.685 289.891 210.301 290.371 210.024C290.851 209.736 291.384 209.592 291.971 209.592V212.488H291.219C290.536 212.488 290.024 212.637 289.683 212.936C289.342 213.224 289.171 213.736 289.171 214.472V218.616H286.435V209.688H289.171V211.176ZM296.911 218.744C296.132 218.744 295.439 218.61 294.831 218.344C294.223 218.077 293.743 217.714 293.391 217.256C293.039 216.786 292.841 216.264 292.799 215.688H295.503C295.535 215.997 295.679 216.248 295.935 216.44C296.191 216.632 296.505 216.728 296.879 216.728C297.22 216.728 297.481 216.664 297.663 216.536C297.855 216.397 297.951 216.221 297.951 216.008C297.951 215.752 297.817 215.565 297.551 215.448C297.284 215.32 296.852 215.181 296.255 215.032C295.615 214.882 295.081 214.728 294.655 214.568C294.228 214.397 293.86 214.136 293.551 213.784C293.241 213.421 293.087 212.936 293.087 212.328C293.087 211.816 293.225 211.352 293.503 210.936C293.791 210.509 294.207 210.173 294.751 209.928C295.305 209.682 295.961 209.56 296.719 209.56C297.839 209.56 298.719 209.837 299.359 210.392C300.009 210.946 300.383 211.682 300.479 212.6H297.951C297.908 212.29 297.769 212.045 297.535 211.864C297.311 211.682 297.012 211.592 296.639 211.592C296.319 211.592 296.073 211.656 295.903 211.784C295.732 211.901 295.647 212.066 295.647 212.28C295.647 212.536 295.78 212.728 296.047 212.856C296.324 212.984 296.751 213.112 297.327 213.24C297.988 213.41 298.527 213.581 298.943 213.752C299.359 213.912 299.721 214.178 300.031 214.552C300.351 214.914 300.516 215.405 300.527 216.024C300.527 216.546 300.377 217.016 300.079 217.432C299.791 217.837 299.369 218.157 298.815 218.392C298.271 218.626 297.636 218.744 296.911 218.744ZM304.937 206.776V218.616H302.201V206.776H304.937ZM315.335 214.008C315.335 214.264 315.319 214.53 315.287 214.808H309.095C309.138 215.362 309.314 215.789 309.623 216.088C309.943 216.376 310.333 216.52 310.791 216.52C311.474 216.52 311.949 216.232 312.215 215.656H315.127C314.978 216.242 314.706 216.77 314.311 217.24C313.927 217.709 313.442 218.077 312.855 218.344C312.269 218.61 311.613 218.744 310.887 218.744C310.013 218.744 309.234 218.557 308.551 218.184C307.869 217.81 307.335 217.277 306.951 216.584C306.567 215.89 306.375 215.08 306.375 214.152C306.375 213.224 306.562 212.413 306.935 211.72C307.319 211.026 307.853 210.493 308.535 210.12C309.218 209.746 310.002 209.56 310.887 209.56C311.751 209.56 312.519 209.741 313.191 210.104C313.863 210.466 314.386 210.984 314.759 211.656C315.143 212.328 315.335 213.112 315.335 214.008ZM312.535 213.288C312.535 212.818 312.375 212.445 312.055 212.168C311.735 211.89 311.335 211.752 310.855 211.752C310.397 211.752 310.007 211.885 309.687 212.152C309.378 212.418 309.186 212.797 309.111 213.288H312.535ZM325.899 209.688L320.299 222.856H317.355L319.403 218.312L315.771 209.688H318.827L320.891 215.272L322.939 209.688H325.899Z" fill="#E9D4D4"/>
<path d="M553.572 209.48V206.936H558.004V218.616H555.156V209.48H553.572ZM563.091 216.088L561.315 220.68H559.571L560.499 216.088H563.091ZM564.469 212.616C564.469 210.781 564.821 209.336 565.525 208.28C566.24 207.224 567.386 206.696 568.965 206.696C570.544 206.696 571.685 207.224 572.389 208.28C573.104 209.336 573.461 210.781 573.461 212.616C573.461 214.472 573.104 215.928 572.389 216.984C571.685 218.04 570.544 218.568 568.965 218.568C567.386 218.568 566.24 218.04 565.525 216.984C564.821 215.928 564.469 214.472 564.469 212.616ZM570.773 212.616C570.773 211.538 570.656 210.712 570.421 210.136C570.186 209.549 569.701 209.256 568.965 209.256C568.229 209.256 567.744 209.549 567.509 210.136C567.274 210.712 567.157 211.538 567.157 212.616C567.157 213.341 567.2 213.944 567.285 214.424C567.37 214.893 567.541 215.277 567.797 215.576C568.064 215.864 568.453 216.008 568.965 216.008C569.477 216.008 569.861 215.864 570.117 215.576C570.384 215.277 570.56 214.893 570.645 214.424C570.73 213.944 570.773 213.341 570.773 212.616ZM574.906 212.616C574.906 210.781 575.258 209.336 575.962 208.28C576.677 207.224 577.824 206.696 579.402 206.696C580.981 206.696 582.122 207.224 582.826 208.28C583.541 209.336 583.898 210.781 583.898 212.616C583.898 214.472 583.541 215.928 582.826 216.984C582.122 218.04 580.981 218.568 579.402 218.568C577.824 218.568 576.677 218.04 575.962 216.984C575.258 215.928 574.906 214.472 574.906 212.616ZM581.21 212.616C581.21 211.538 581.093 210.712 580.858 210.136C580.624 209.549 580.138 209.256 579.402 209.256C578.666 209.256 578.181 209.549 577.946 210.136C577.712 210.712 577.594 211.538 577.594 212.616C577.594 213.341 577.637 213.944 577.722 214.424C577.808 214.893 577.978 215.277 578.234 215.576C578.501 215.864 578.89 216.008 579.402 216.008C579.914 216.008 580.298 215.864 580.554 215.576C580.821 215.277 580.997 214.893 581.082 214.424C581.168 213.944 581.21 213.341 581.21 212.616ZM585.344 212.616C585.344 210.781 585.696 209.336 586.4 208.28C587.115 207.224 588.261 206.696 589.84 206.696C591.419 206.696 592.56 207.224 593.264 208.28C593.979 209.336 594.336 210.781 594.336 212.616C594.336 214.472 593.979 215.928 593.264 216.984C592.56 218.04 591.419 218.568 589.84 218.568C588.261 218.568 587.115 218.04 586.4 216.984C585.696 215.928 585.344 214.472 585.344 212.616ZM591.648 212.616C591.648 211.538 591.531 210.712 591.296 210.136C591.061 209.549 590.576 209.256 589.84 209.256C589.104 209.256 588.619 209.549 588.384 210.136C588.149 210.712 588.032 211.538 588.032 212.616C588.032 213.341 588.075 213.944 588.16 214.424C588.245 214.893 588.416 215.277 588.672 215.576C588.939 215.864 589.328 216.008 589.84 216.008C590.352 216.008 590.736 215.864 590.992 215.576C591.259 215.277 591.435 214.893 591.52 214.424C591.605 213.944 591.648 213.341 591.648 212.616Z" fill="#E9D4D4"/>
<path d="M883.249 216.424C883.612 216.136 883.777 216.002 883.745 216.024C884.791 215.16 885.612 214.45 886.209 213.896C886.817 213.341 887.329 212.76 887.745 212.152C888.161 211.544 888.369 210.952 888.369 210.376C888.369 209.938 888.268 209.597 888.065 209.352C887.863 209.106 887.559 208.984 887.153 208.984C886.748 208.984 886.428 209.138 886.193 209.448C885.969 209.746 885.857 210.173 885.857 210.728H883.217C883.239 209.821 883.431 209.064 883.793 208.456C884.167 207.848 884.652 207.4 885.249 207.112C885.857 206.824 886.529 206.68 887.265 206.68C888.535 206.68 889.489 207.005 890.129 207.656C890.78 208.306 891.105 209.154 891.105 210.2C891.105 211.341 890.716 212.402 889.937 213.384C889.159 214.354 888.167 215.304 886.961 216.232H891.281V218.456H883.249V216.424ZM895.702 216.088L893.926 220.68H892.182L893.11 216.088H895.702ZM897.08 212.616C897.08 210.781 897.432 209.336 898.136 208.28C898.85 207.224 899.997 206.696 901.576 206.696C903.154 206.696 904.296 207.224 905 208.28C905.714 209.336 906.072 210.781 906.072 212.616C906.072 214.472 905.714 215.928 905 216.984C904.296 218.04 903.154 218.568 901.576 218.568C899.997 218.568 898.85 218.04 898.136 216.984C897.432 215.928 897.08 214.472 897.08 212.616ZM903.384 212.616C903.384 211.538 903.266 210.712 903.032 210.136C902.797 209.549 902.312 209.256 901.576 209.256C900.84 209.256 900.354 209.549 900.12 210.136C899.885 210.712 899.768 211.538 899.768 212.616C899.768 213.341 899.81 213.944 899.896 214.424C899.981 214.893 900.152 215.277 900.408 215.576C900.674 215.864 901.064 216.008 901.576 216.008C902.088 216.008 902.472 215.864 902.728 215.576C902.994 215.277 903.17 214.893 903.256 214.424C903.341 213.944 903.384 213.341 903.384 212.616ZM907.517 212.616C907.517 210.781 907.869 209.336 908.573 208.28C909.288 207.224 910.435 206.696 912.013 206.696C913.592 206.696 914.733 207.224 915.437 208.28C916.152 209.336 916.509 210.781 916.509 212.616C916.509 214.472 916.152 215.928 915.437 216.984C914.733 218.04 913.592 218.568 912.013 218.568C910.435 218.568 909.288 218.04 908.573 216.984C907.869 215.928 907.517 214.472 907.517 212.616ZM913.821 212.616C913.821 211.538 913.704 210.712 913.469 210.136C913.235 209.549 912.749 209.256 912.013 209.256C911.277 209.256 910.792 209.549 910.557 210.136C910.323 210.712 910.205 211.538 910.205 212.616C910.205 213.341 910.248 213.944 910.333 214.424C910.419 214.893 910.589 215.277 910.845 215.576C911.112 215.864 911.501 216.008 912.013 216.008C912.525 216.008 912.909 215.864 913.165 215.576C913.432 215.277 913.608 214.893 913.693 214.424C913.779 213.944 913.821 213.341 913.821 212.616ZM917.955 212.616C917.955 210.781 918.307 209.336 919.011 208.28C919.725 207.224 920.872 206.696 922.451 206.696C924.029 206.696 925.171 207.224 925.875 208.28C926.589 209.336 926.947 210.781 926.947 212.616C926.947 214.472 926.589 215.928 925.875 216.984C925.171 218.04 924.029 218.568 922.451 218.568C920.872 218.568 919.725 218.04 919.011 216.984C918.307 215.928 917.955 214.472 917.955 212.616ZM924.259 212.616C924.259 211.538 924.141 210.712 923.907 210.136C923.672 209.549 923.187 209.256 922.451 209.256C921.715 209.256 921.229 209.549 920.995 210.136C920.76 210.712 920.643 211.538 920.643 212.616C920.643 213.341 920.685 213.944 920.771 214.424C920.856 214.893 921.027 215.277 921.283 215.576C921.549 215.864 921.939 216.008 922.451 216.008C922.963 216.008 923.347 215.864 923.603 215.576C923.869 215.277 924.045 214.893 924.131 214.424C924.216 213.944 924.259 213.341 924.259 212.616Z" fill="#4AFF7C"/>
<path d="M1183.15 211.864V214.136H1176.11V211.864H1183.15Z" fill="#FF5C5C"/>
<path d="M242.915 127.886V134.942C242.915 135.934 243.155 136.67 243.635 137.15C244.126 137.63 244.803 137.87 245.667 137.87C246.521 137.87 247.187 137.63 247.667 137.15C248.158 136.67 248.403 135.934 248.403 134.942V127.886H249.859V134.926C249.859 135.854 249.673 136.638 249.299 137.278C248.926 137.907 248.419 138.377 247.779 138.686C247.15 138.995 246.441 139.15 245.651 139.15C244.862 139.15 244.147 138.995 243.507 138.686C242.878 138.377 242.377 137.907 242.003 137.278C241.641 136.638 241.459 135.854 241.459 134.926V127.886H242.915ZM255.392 139.182C254.72 139.182 254.117 139.07 253.584 138.846C253.051 138.611 252.629 138.291 252.32 137.886C252.011 137.47 251.84 136.995 251.808 136.462H253.312C253.355 136.899 253.557 137.257 253.92 137.534C254.293 137.811 254.779 137.95 255.376 137.95C255.931 137.95 256.368 137.827 256.688 137.582C257.008 137.337 257.168 137.027 257.168 136.654C257.168 136.27 256.997 135.987 256.656 135.806C256.315 135.614 255.787 135.427 255.072 135.246C254.421 135.075 253.888 134.905 253.472 134.734C253.067 134.553 252.715 134.291 252.416 133.95C252.128 133.598 251.984 133.139 251.984 132.574C251.984 132.126 252.117 131.715 252.384 131.342C252.651 130.969 253.029 130.675 253.52 130.462C254.011 130.238 254.571 130.126 255.2 130.126C256.171 130.126 256.955 130.371 257.552 130.862C258.149 131.353 258.469 132.025 258.512 132.878H257.056C257.024 132.419 256.837 132.051 256.496 131.774C256.165 131.497 255.717 131.358 255.152 131.358C254.629 131.358 254.213 131.47 253.904 131.694C253.595 131.918 253.44 132.211 253.44 132.574C253.44 132.862 253.531 133.102 253.712 133.294C253.904 133.475 254.139 133.625 254.416 133.742C254.704 133.849 255.099 133.971 255.6 134.11C256.229 134.281 256.741 134.451 257.136 134.622C257.531 134.782 257.867 135.027 258.144 135.358C258.432 135.689 258.581 136.121 258.592 136.654C258.592 137.134 258.459 137.566 258.192 137.95C257.925 138.334 257.547 138.638 257.056 138.862C256.576 139.075 256.021 139.182 255.392 139.182ZM268.648 134.318C268.648 134.595 268.632 134.889 268.6 135.198H261.592C261.645 136.062 261.938 136.739 262.472 137.23C263.016 137.71 263.672 137.95 264.44 137.95C265.069 137.95 265.592 137.806 266.008 137.518C266.434 137.219 266.733 136.825 266.904 136.334H268.472C268.237 137.177 267.768 137.865 267.064 138.398C266.36 138.921 265.485 139.182 264.44 139.182C263.608 139.182 262.861 138.995 262.2 138.622C261.549 138.249 261.037 137.721 260.664 137.038C260.29 136.345 260.104 135.545 260.104 134.638C260.104 133.731 260.285 132.937 260.648 132.254C261.01 131.571 261.517 131.049 262.168 130.686C262.829 130.313 263.586 130.126 264.44 130.126C265.272 130.126 266.008 130.307 266.648 130.67C267.288 131.033 267.778 131.534 268.12 132.174C268.472 132.803 268.648 133.518 268.648 134.318ZM267.144 134.014C267.144 133.459 267.021 132.985 266.776 132.59C266.53 132.185 266.194 131.881 265.768 131.678C265.352 131.465 264.888 131.358 264.376 131.358C263.64 131.358 263.01 131.593 262.488 132.062C261.976 132.531 261.682 133.182 261.608 134.014H267.144ZM272.025 131.694C272.281 131.193 272.644 130.803 273.113 130.526C273.593 130.249 274.175 130.11 274.857 130.11V131.614H274.473C272.841 131.614 272.025 132.499 272.025 134.27V139.038H270.569V130.27H272.025V131.694Z" fill="#E9D4D4"/>
<path d="M536.746 133.294C537.151 133.358 537.519 133.523 537.85 133.79C538.191 134.057 538.458 134.387 538.65 134.782C538.853 135.177 538.954 135.598 538.954 136.046C538.954 136.611 538.81 137.123 538.522 137.582C538.234 138.03 537.813 138.387 537.258 138.654C536.714 138.91 536.069 139.038 535.322 139.038H531.162V127.886H535.162C535.919 127.886 536.565 128.014 537.098 128.27C537.631 128.515 538.031 128.851 538.298 129.278C538.565 129.705 538.698 130.185 538.698 130.718C538.698 131.379 538.517 131.929 538.154 132.366C537.802 132.793 537.333 133.102 536.746 133.294ZM532.618 132.702H535.066C535.749 132.702 536.277 132.542 536.65 132.222C537.023 131.902 537.21 131.459 537.21 130.894C537.21 130.329 537.023 129.886 536.65 129.566C536.277 129.246 535.738 129.086 535.034 129.086H532.618V132.702ZM535.194 137.838C535.919 137.838 536.485 137.667 536.89 137.326C537.295 136.985 537.498 136.51 537.498 135.902C537.498 135.283 537.285 134.798 536.858 134.446C536.431 134.083 535.861 133.902 535.146 133.902H532.618V137.838H535.194ZM541.726 128.846C541.449 128.846 541.214 128.75 541.022 128.558C540.83 128.366 540.734 128.131 540.734 127.854C540.734 127.577 540.83 127.342 541.022 127.15C541.214 126.958 541.449 126.862 541.726 126.862C541.993 126.862 542.217 126.958 542.398 127.15C542.59 127.342 542.686 127.577 542.686 127.854C542.686 128.131 542.59 128.366 542.398 128.558C542.217 128.75 541.993 128.846 541.726 128.846ZM542.43 130.27V139.038H540.974V130.27H542.43ZM544.368 134.622C544.368 133.726 544.549 132.942 544.912 132.27C545.275 131.587 545.771 131.059 546.4 130.686C547.04 130.313 547.755 130.126 548.544 130.126C549.227 130.126 549.861 130.286 550.448 130.606C551.035 130.915 551.483 131.326 551.792 131.838V127.198H553.264V139.038H551.792V137.39C551.504 137.913 551.077 138.345 550.512 138.686C549.947 139.017 549.285 139.182 548.528 139.182C547.749 139.182 547.04 138.99 546.4 138.606C545.771 138.222 545.275 137.683 544.912 136.99C544.549 136.297 544.368 135.507 544.368 134.622ZM551.792 134.638C551.792 133.977 551.659 133.401 551.392 132.91C551.125 132.419 550.763 132.046 550.304 131.79C549.856 131.523 549.36 131.39 548.816 131.39C548.272 131.39 547.776 131.518 547.328 131.774C546.88 132.03 546.523 132.403 546.256 132.894C545.989 133.385 545.856 133.961 545.856 134.622C545.856 135.294 545.989 135.881 546.256 136.382C546.523 136.873 546.88 137.251 547.328 137.518C547.776 137.774 548.272 137.902 548.816 137.902C549.36 137.902 549.856 137.774 550.304 137.518C550.763 137.251 551.125 136.873 551.392 136.382C551.659 135.881 551.792 135.299 551.792 134.638ZM559.446 134.638C559.446 133.731 559.627 132.942 559.99 132.27C560.353 131.587 560.854 131.059 561.494 130.686C562.145 130.313 562.886 130.126 563.718 130.126C564.795 130.126 565.681 130.387 566.374 130.91C567.078 131.433 567.542 132.158 567.766 133.086H566.198C566.049 132.553 565.755 132.131 565.318 131.822C564.891 131.513 564.358 131.358 563.718 131.358C562.886 131.358 562.214 131.646 561.702 132.222C561.19 132.787 560.934 133.593 560.934 134.638C560.934 135.694 561.19 136.51 561.702 137.086C562.214 137.662 562.886 137.95 563.718 137.95C564.358 137.95 564.891 137.801 565.318 137.502C565.745 137.203 566.038 136.777 566.198 136.222H567.766C567.531 137.118 567.062 137.838 566.358 138.382C565.654 138.915 564.774 139.182 563.718 139.182C562.886 139.182 562.145 138.995 561.494 138.622C560.854 138.249 560.353 137.721 559.99 137.038C559.627 136.355 559.446 135.555 559.446 134.638ZM573.533 139.182C572.711 139.182 571.965 138.995 571.293 138.622C570.631 138.249 570.109 137.721 569.725 137.038C569.351 136.345 569.165 135.545 569.165 134.638C569.165 133.742 569.357 132.953 569.741 132.27C570.135 131.577 570.669 131.049 571.341 130.686C572.013 130.313 572.765 130.126 573.597 130.126C574.429 130.126 575.181 130.313 575.853 130.686C576.525 131.049 577.053 131.571 577.437 132.254C577.831 132.937 578.029 133.731 578.029 134.638C578.029 135.545 577.826 136.345 577.421 137.038C577.026 137.721 576.487 138.249 575.805 138.622C575.122 138.995 574.365 139.182 573.533 139.182ZM573.533 137.902C574.055 137.902 574.546 137.779 575.005 137.534C575.463 137.289 575.831 136.921 576.109 136.43C576.397 135.939 576.541 135.342 576.541 134.638C576.541 133.934 576.402 133.337 576.125 132.846C575.847 132.355 575.485 131.993 575.037 131.758C574.589 131.513 574.103 131.39 573.581 131.39C573.047 131.39 572.557 131.513 572.109 131.758C571.671 131.993 571.319 132.355 571.053 132.846C570.786 133.337 570.653 133.934 570.653 134.638C570.653 135.353 570.781 135.955 571.037 136.446C571.303 136.937 571.655 137.305 572.093 137.55C572.53 137.785 573.01 137.902 573.533 137.902ZM580.695 128.846C580.418 128.846 580.183 128.75 579.991 128.558C579.799 128.366 579.703 128.131 579.703 127.854C579.703 127.577 579.799 127.342 579.991 127.15C580.183 126.958 580.418 126.862 580.695 126.862C580.962 126.862 581.186 126.958 581.367 127.15C581.559 127.342 581.655 127.577 581.655 127.854C581.655 128.131 581.559 128.366 581.367 128.558C581.186 128.75 580.962 128.846 580.695 128.846ZM581.399 130.27V139.038H579.943V130.27H581.399ZM588.153 130.11C589.219 130.11 590.083 130.435 590.745 131.086C591.406 131.726 591.737 132.654 591.737 133.87V139.038H590.297V134.078C590.297 133.203 590.078 132.537 589.641 132.078C589.203 131.609 588.606 131.374 587.849 131.374C587.081 131.374 586.467 131.614 586.009 132.094C585.561 132.574 585.337 133.273 585.337 134.19V139.038H583.881V130.27H585.337V131.518C585.625 131.07 586.014 130.723 586.505 130.478C587.006 130.233 587.555 130.11 588.153 130.11ZM597.219 139.182C596.547 139.182 595.944 139.07 595.411 138.846C594.878 138.611 594.456 138.291 594.147 137.886C593.838 137.47 593.667 136.995 593.635 136.462H595.139C595.182 136.899 595.384 137.257 595.747 137.534C596.12 137.811 596.606 137.95 597.203 137.95C597.758 137.95 598.195 137.827 598.515 137.582C598.835 137.337 598.995 137.027 598.995 136.654C598.995 136.27 598.824 135.987 598.483 135.806C598.142 135.614 597.614 135.427 596.899 135.246C596.248 135.075 595.715 134.905 595.299 134.734C594.894 134.553 594.542 134.291 594.243 133.95C593.955 133.598 593.811 133.139 593.811 132.574C593.811 132.126 593.944 131.715 594.211 131.342C594.478 130.969 594.856 130.675 595.347 130.462C595.838 130.238 596.398 130.126 597.027 130.126C597.998 130.126 598.782 130.371 599.379 130.862C599.976 131.353 600.296 132.025 600.339 132.878H598.883C598.851 132.419 598.664 132.051 598.323 131.774C597.992 131.497 597.544 131.358 596.979 131.358C596.456 131.358 596.04 131.47 595.731 131.694C595.422 131.918 595.267 132.211 595.267 132.574C595.267 132.862 595.358 133.102 595.539 133.294C595.731 133.475 595.966 133.625 596.243 133.742C596.531 133.849 596.926 133.971 597.427 134.11C598.056 134.281 598.568 134.451 598.963 134.622C599.358 134.782 599.694 135.027 599.971 135.358C600.259 135.689 600.408 136.121 600.419 136.654C600.419 137.134 600.286 137.566 600.019 137.95C599.752 138.334 599.374 138.638 598.883 138.862C598.403 139.075 597.848 139.182 597.219 139.182Z" fill="#E9D4D4"/>
<path d="M866.352 131.15C866.352 132.078 866.032 132.851 865.392 133.47C864.762 134.078 863.797 134.382 862.496 134.382H860.352V139.038H858.896V127.886H862.496C863.754 127.886 864.709 128.19 865.36 128.798C866.021 129.406 866.352 130.19 866.352 131.15ZM862.496 133.182C863.306 133.182 863.904 133.006 864.288 132.654C864.672 132.302 864.864 131.801 864.864 131.15C864.864 129.774 864.074 129.086 862.496 129.086H860.352V133.182H862.496ZM869.617 131.694C869.873 131.193 870.236 130.803 870.705 130.526C871.185 130.249 871.767 130.11 872.449 130.11V131.614H872.065C870.433 131.614 869.617 132.499 869.617 134.27V139.038H868.161V130.27H869.617V131.694ZM877.954 139.182C877.133 139.182 876.386 138.995 875.714 138.622C875.053 138.249 874.53 137.721 874.146 137.038C873.773 136.345 873.586 135.545 873.586 134.638C873.586 133.742 873.778 132.953 874.162 132.27C874.557 131.577 875.09 131.049 875.762 130.686C876.434 130.313 877.186 130.126 878.018 130.126C878.85 130.126 879.602 130.313 880.274 130.686C880.946 131.049 881.474 131.571 881.858 132.254C882.253 132.937 882.45 133.731 882.45 134.638C882.45 135.545 882.247 136.345 881.842 137.038C881.447 137.721 880.909 138.249 880.226 138.622C879.543 138.995 878.786 139.182 877.954 139.182ZM877.954 137.902C878.477 137.902 878.967 137.779 879.426 137.534C879.885 137.289 880.253 136.921 880.53 136.43C880.818 135.939 880.962 135.342 880.962 134.638C880.962 133.934 880.823 133.337 880.546 132.846C880.269 132.355 879.906 131.993 879.458 131.758C879.01 131.513 878.525 131.39 878.002 131.39C877.469 131.39 876.978 131.513 876.53 131.758C876.093 131.993 875.741 132.355 875.474 132.846C875.207 133.337 875.074 133.934 875.074 134.638C875.074 135.353 875.202 135.955 875.458 136.446C875.725 136.937 876.077 137.305 876.514 137.55C876.951 137.785 877.431 137.902 877.954 137.902ZM887.933 131.47H886.093V139.038H884.637V131.47H883.501V130.27H884.637V129.646C884.637 128.665 884.887 127.95 885.389 127.502C885.901 127.043 886.717 126.814 887.837 126.814V128.03C887.197 128.03 886.743 128.158 886.477 128.414C886.221 128.659 886.093 129.07 886.093 129.646V130.27H887.933V131.47ZM890.382 128.846C890.105 128.846 889.87 128.75 889.678 128.558C889.486 128.366 889.39 128.131 889.39 127.854C889.39 127.577 889.486 127.342 889.678 127.15C889.87 126.958 890.105 126.862 890.382 126.862C890.649 126.862 890.873 126.958 891.054 127.15C891.246 127.342 891.342 127.577 891.342 127.854C891.342 128.131 891.246 128.366 891.054 128.558C890.873 128.75 890.649 128.846 890.382 128.846ZM891.086 130.27V139.038H889.63V130.27H891.086ZM895.344 131.47V136.638C895.344 137.065 895.434 137.369 895.616 137.55C895.797 137.721 896.112 137.806 896.56 137.806H897.632V139.038H896.32C895.509 139.038 894.901 138.851 894.496 138.478C894.09 138.105 893.888 137.491 893.888 136.638V131.47H892.752V130.27H893.888V128.062H895.344V130.27H897.632V131.47H895.344Z" fill="#E9D4D4"/>
<path d="M1155.28 137.854H1159.18V139.038H1153.82V127.886H1155.28V137.854ZM1164.55 139.182C1163.73 139.182 1162.98 138.995 1162.31 138.622C1161.65 138.249 1161.13 137.721 1160.74 137.038C1160.37 136.345 1160.18 135.545 1160.18 134.638C1160.18 133.742 1160.38 132.953 1160.76 132.27C1161.15 131.577 1161.69 131.049 1162.36 130.686C1163.03 130.313 1163.78 130.126 1164.62 130.126C1165.45 130.126 1166.2 130.313 1166.87 130.686C1167.54 131.049 1168.07 131.571 1168.46 132.254C1168.85 132.937 1169.05 133.731 1169.05 134.638C1169.05 135.545 1168.84 136.345 1168.44 137.038C1168.04 137.721 1167.51 138.249 1166.82 138.622C1166.14 138.995 1165.38 139.182 1164.55 139.182ZM1164.55 137.902C1165.07 137.902 1165.56 137.779 1166.02 137.534C1166.48 137.289 1166.85 136.921 1167.13 136.43C1167.42 135.939 1167.56 135.342 1167.56 134.638C1167.56 133.934 1167.42 133.337 1167.14 132.846C1166.87 132.355 1166.5 131.993 1166.06 131.758C1165.61 131.513 1165.12 131.39 1164.6 131.39C1164.07 131.39 1163.58 131.513 1163.13 131.758C1162.69 131.993 1162.34 132.355 1162.07 132.846C1161.8 133.337 1161.67 133.934 1161.67 134.638C1161.67 135.353 1161.8 135.955 1162.06 136.446C1162.32 136.937 1162.67 137.305 1163.11 137.55C1163.55 137.785 1164.03 137.902 1164.55 137.902ZM1174.07 139.182C1173.39 139.182 1172.79 139.07 1172.26 138.846C1171.72 138.611 1171.3 138.291 1170.99 137.886C1170.68 137.47 1170.51 136.995 1170.48 136.462H1171.99C1172.03 136.899 1172.23 137.257 1172.59 137.534C1172.97 137.811 1173.45 137.95 1174.05 137.95C1174.6 137.95 1175.04 137.827 1175.36 137.582C1175.68 137.337 1175.84 137.027 1175.84 136.654C1175.84 136.27 1175.67 135.987 1175.33 135.806C1174.99 135.614 1174.46 135.427 1173.75 135.246C1173.1 135.075 1172.56 134.905 1172.15 134.734C1171.74 134.553 1171.39 134.291 1171.09 133.95C1170.8 133.598 1170.66 133.139 1170.66 132.574C1170.66 132.126 1170.79 131.715 1171.06 131.342C1171.32 130.969 1171.7 130.675 1172.19 130.462C1172.68 130.238 1173.24 130.126 1173.87 130.126C1174.84 130.126 1175.63 130.371 1176.23 130.862C1176.82 131.353 1177.14 132.025 1177.19 132.878H1175.73C1175.7 132.419 1175.51 132.051 1175.17 131.774C1174.84 131.497 1174.39 131.358 1173.83 131.358C1173.3 131.358 1172.89 131.47 1172.58 131.694C1172.27 131.918 1172.11 132.211 1172.11 132.574C1172.11 132.862 1172.2 133.102 1172.39 133.294C1172.58 133.475 1172.81 133.625 1173.09 133.742C1173.38 133.849 1173.77 133.971 1174.27 134.11C1174.9 134.281 1175.42 134.451 1175.81 134.622C1176.2 134.782 1176.54 135.027 1176.82 135.358C1177.11 135.689 1177.26 136.121 1177.27 136.654C1177.27 137.134 1177.13 137.566 1176.87 137.95C1176.6 138.334 1176.22 138.638 1175.73 138.862C1175.25 139.075 1174.7 139.182 1174.07 139.182ZM1182.43 139.182C1181.75 139.182 1181.15 139.07 1180.62 138.846C1180.08 138.611 1179.66 138.291 1179.35 137.886C1179.04 137.47 1178.87 136.995 1178.84 136.462H1180.35C1180.39 136.899 1180.59 137.257 1180.95 137.534C1181.33 137.811 1181.81 137.95 1182.41 137.95C1182.96 137.95 1183.4 137.827 1183.72 137.582C1184.04 137.337 1184.2 137.027 1184.2 136.654C1184.2 136.27 1184.03 135.987 1183.69 135.806C1183.35 135.614 1182.82 135.427 1182.11 135.246C1181.45 135.075 1180.92 134.905 1180.51 134.734C1180.1 134.553 1179.75 134.291 1179.45 133.95C1179.16 133.598 1179.02 133.139 1179.02 132.574C1179.02 132.126 1179.15 131.715 1179.42 131.342C1179.68 130.969 1180.06 130.675 1180.55 130.462C1181.04 130.238 1181.6 130.126 1182.23 130.126C1183.2 130.126 1183.99 130.371 1184.59 130.862C1185.18 131.353 1185.5 132.025 1185.55 132.878H1184.09C1184.06 132.419 1183.87 132.051 1183.53 131.774C1183.2 131.497 1182.75 131.358 1182.19 131.358C1181.66 131.358 1181.25 131.47 1180.94 131.694C1180.63 131.918 1180.47 132.211 1180.47 132.574C1180.47 132.862 1180.56 133.102 1180.75 133.294C1180.94 133.475 1181.17 133.625 1181.45 133.742C1181.74 133.849 1182.13 133.971 1182.63 134.11C1183.26 134.281 1183.77 134.451 1184.17 134.622C1184.56 134.782 1184.9 135.027 1185.18 135.358C1185.47 135.689 1185.61 136.121 1185.63 136.654C1185.63 137.134 1185.49 137.566 1185.23 137.95C1184.96 138.334 1184.58 138.638 1184.09 138.862C1183.61 139.075 1183.05 139.182 1182.43 139.182Z" fill="#E9D4D4"/>
<circle cx="181.089" cy="213.126" r="15.0146" fill="#464954"/>
<path d="M187.098 219.882V218.381C187.098 217.585 186.781 216.821 186.218 216.258C185.655 215.694 184.891 215.378 184.095 215.378H178.089C177.292 215.378 176.529 215.694 175.965 216.258C175.402 216.821 175.086 217.585 175.086 218.381V219.882" stroke="#949494" stroke-width="2" stroke-linecap="round" stroke-linejoin="round"/>
<path d="M181.089 212.375C182.747 212.375 184.092 211.031 184.092 209.372C184.092 207.714 182.747 206.369 181.089 206.369C179.43 206.369 178.086 207.714 178.086 209.372C178.086 211.031 179.43 212.375 181.089 212.375Z" stroke="#949494" stroke-width="2" stroke-linecap="round" stroke-linejoin="round"/>
<line x1="131.636" y1="170.585" x2="1265.47" y2="170.585" stroke="#8B8B8B"/>
<path d="M219.153 291.465V299.113C219.153 300.297 218.817 301.209 218.145 301.849C217.484 302.489 216.588 302.809 215.457 302.809C214.273 302.809 213.324 302.473 212.609 301.801C211.894 301.129 211.537 300.175 211.537 298.937H214.257C214.257 299.407 214.353 299.764 214.545 300.009C214.737 300.244 215.014 300.361 215.377 300.361C215.708 300.361 215.964 300.255 216.145 300.041C216.326 299.828 216.417 299.519 216.417 299.113V291.465H219.153ZM225.427 302.825C224.552 302.825 223.763 302.639 223.059 302.265C222.366 301.892 221.816 301.359 221.411 300.665C221.016 299.972 220.819 299.161 220.819 298.233C220.819 297.316 221.022 296.511 221.427 295.817C221.832 295.113 222.387 294.575 223.091 294.201C223.795 293.828 224.584 293.641 225.459 293.641C226.334 293.641 227.123 293.828 227.827 294.201C228.531 294.575 229.086 295.113 229.491 295.817C229.896 296.511 230.099 297.316 230.099 298.233C230.099 299.151 229.891 299.961 229.475 300.665C229.07 301.359 228.51 301.892 227.795 302.265C227.091 302.639 226.302 302.825 225.427 302.825ZM225.427 300.457C225.95 300.457 226.392 300.265 226.755 299.881C227.128 299.497 227.315 298.948 227.315 298.233C227.315 297.519 227.134 296.969 226.771 296.585C226.419 296.201 225.982 296.009 225.459 296.009C224.926 296.009 224.483 296.201 224.131 296.585C223.779 296.959 223.603 297.508 223.603 298.233C223.603 298.948 223.774 299.497 224.115 299.881C224.467 300.265 224.904 300.457 225.427 300.457ZM237.039 293.673C238.063 293.673 238.884 294.015 239.503 294.697C240.121 295.369 240.431 296.297 240.431 297.481V302.697H237.711V297.849C237.711 297.252 237.556 296.788 237.247 296.457C236.937 296.127 236.521 295.961 235.999 295.961C235.476 295.961 235.06 296.127 234.751 296.457C234.441 296.788 234.287 297.252 234.287 297.849V302.697H231.551V290.857H234.287V294.969C234.564 294.575 234.943 294.26 235.423 294.025C235.903 293.791 236.441 293.673 237.039 293.673ZM247.772 293.673C248.817 293.673 249.649 294.015 250.268 294.697C250.897 295.369 251.212 296.297 251.212 297.481V302.697H248.492V297.849C248.492 297.252 248.337 296.788 248.028 296.457C247.719 296.127 247.303 295.961 246.78 295.961C246.257 295.961 245.841 296.127 245.532 296.457C245.223 296.788 245.068 297.252 245.068 297.849V302.697H242.332V293.769H245.068V294.953C245.345 294.559 245.719 294.249 246.188 294.025C246.657 293.791 247.185 293.673 247.772 293.673ZM260.568 302.809C259.746 302.809 259.01 302.676 258.36 302.409C257.709 302.143 257.186 301.748 256.792 301.225C256.408 300.703 256.205 300.073 256.184 299.337H259.096C259.138 299.753 259.282 300.073 259.528 300.297C259.773 300.511 260.093 300.617 260.488 300.617C260.893 300.617 261.213 300.527 261.448 300.345C261.682 300.153 261.8 299.892 261.8 299.561C261.8 299.284 261.704 299.055 261.512 298.873C261.33 298.692 261.101 298.543 260.824 298.425C260.557 298.308 260.173 298.175 259.672 298.025C258.946 297.801 258.354 297.577 257.896 297.353C257.437 297.129 257.042 296.799 256.712 296.361C256.381 295.924 256.216 295.353 256.216 294.649C256.216 293.604 256.594 292.788 257.352 292.201C258.109 291.604 259.096 291.305 260.312 291.305C261.549 291.305 262.546 291.604 263.304 292.201C264.061 292.788 264.466 293.609 264.52 294.665H261.56C261.538 294.303 261.405 294.02 261.16 293.817C260.914 293.604 260.6 293.497 260.216 293.497C259.885 293.497 259.618 293.588 259.416 293.769C259.213 293.94 259.112 294.191 259.112 294.521C259.112 294.884 259.282 295.167 259.624 295.369C259.965 295.572 260.498 295.791 261.224 296.025C261.949 296.271 262.536 296.505 262.984 296.729C263.442 296.953 263.837 297.279 264.168 297.705C264.498 298.132 264.664 298.681 264.664 299.353C264.664 299.993 264.498 300.575 264.168 301.097C263.848 301.62 263.378 302.036 262.76 302.345C262.141 302.655 261.41 302.809 260.568 302.809ZM271.787 293.673C272.833 293.673 273.665 294.015 274.283 294.697C274.913 295.369 275.227 296.297 275.227 297.481V302.697H272.507V297.849C272.507 297.252 272.353 296.788 272.043 296.457C271.734 296.127 271.318 295.961 270.795 295.961C270.273 295.961 269.857 296.127 269.547 296.457C269.238 296.788 269.083 297.252 269.083 297.849V302.697H266.347V293.769H269.083V294.953C269.361 294.559 269.734 294.249 270.203 294.025C270.673 293.791 271.201 293.673 271.787 293.673ZM281.193 302.825C280.318 302.825 279.529 302.639 278.825 302.265C278.131 301.892 277.582 301.359 277.177 300.665C276.782 299.972 276.585 299.161 276.585 298.233C276.585 297.316 276.787 296.511 277.193 295.817C277.598 295.113 278.153 294.575 278.857 294.201C279.561 293.828 280.35 293.641 281.225 293.641C282.099 293.641 282.889 293.828 283.593 294.201C284.297 294.575 284.851 295.113 285.257 295.817C285.662 296.511 285.865 297.316 285.865 298.233C285.865 299.151 285.657 299.961 285.241 300.665C284.835 301.359 284.275 301.892 283.561 302.265C282.857 302.639 282.067 302.825 281.193 302.825ZM281.193 300.457C281.715 300.457 282.158 300.265 282.521 299.881C282.894 299.497 283.081 298.948 283.081 298.233C283.081 297.519 282.899 296.969 282.537 296.585C282.185 296.201 281.747 296.009 281.225 296.009C280.691 296.009 280.249 296.201 279.897 296.585C279.545 296.959 279.369 297.508 279.369 298.233C279.369 298.948 279.539 299.497 279.881 299.881C280.233 300.265 280.67 300.457 281.193 300.457ZM300.132 293.769L297.716 302.697H294.692L293.284 296.905L291.828 302.697H288.82L286.388 293.769H289.124L290.388 300.153L291.892 293.769H294.788L296.308 300.121L297.556 293.769H300.132Z" fill="#E9D4D4"/>
<path d="M562.028 299.273C562.188 300.116 562.678 300.537 563.5 300.537C564.065 300.537 564.465 300.287 564.7 299.785C564.934 299.284 565.052 298.468 565.052 297.337C564.817 297.668 564.497 297.924 564.092 298.105C563.686 298.287 563.233 298.377 562.732 298.377C562.049 298.377 561.441 298.239 560.908 297.961C560.374 297.673 559.953 297.252 559.644 296.697C559.345 296.132 559.196 295.449 559.196 294.649C559.196 293.86 559.356 293.172 559.676 292.585C560.006 291.999 560.47 291.545 561.068 291.225C561.676 290.905 562.39 290.745 563.212 290.745C564.79 290.745 565.894 291.236 566.524 292.217C567.153 293.199 567.468 294.644 567.468 296.553C567.468 297.94 567.34 299.087 567.084 299.993C566.838 300.889 566.417 301.572 565.82 302.041C565.233 302.511 564.428 302.745 563.404 302.745C562.593 302.745 561.9 302.585 561.324 302.265C560.758 301.945 560.321 301.524 560.012 301.001C559.713 300.479 559.542 299.903 559.5 299.273H562.028ZM563.356 296.217C563.804 296.217 564.161 296.084 564.428 295.817C564.694 295.54 564.828 295.167 564.828 294.697C564.828 294.185 564.689 293.791 564.412 293.513C564.134 293.236 563.761 293.097 563.292 293.097C562.822 293.097 562.449 293.241 562.172 293.529C561.905 293.807 561.772 294.191 561.772 294.681C561.772 295.14 561.905 295.513 562.172 295.801C562.449 296.079 562.844 296.217 563.356 296.217ZM568.928 296.697C568.928 294.863 569.28 293.417 569.984 292.361C570.698 291.305 571.845 290.777 573.424 290.777C575.002 290.777 576.144 291.305 576.848 292.361C577.562 293.417 577.92 294.863 577.92 296.697C577.92 298.553 577.562 300.009 576.848 301.065C576.144 302.121 575.002 302.649 573.424 302.649C571.845 302.649 570.698 302.121 569.984 301.065C569.28 300.009 568.928 298.553 568.928 296.697ZM575.232 296.697C575.232 295.62 575.114 294.793 574.88 294.217C574.645 293.631 574.16 293.337 573.424 293.337C572.688 293.337 572.202 293.631 571.968 294.217C571.733 294.793 571.616 295.62 571.616 296.697C571.616 297.423 571.658 298.025 571.744 298.505C571.829 298.975 572 299.359 572.256 299.657C572.522 299.945 572.912 300.089 573.424 300.089C573.936 300.089 574.32 299.945 574.576 299.657C574.842 299.359 575.018 298.975 575.104 298.505C575.189 298.025 575.232 297.423 575.232 296.697ZM579.365 296.697C579.365 294.863 579.717 293.417 580.421 292.361C581.136 291.305 582.282 290.777 583.861 290.777C585.44 290.777 586.581 291.305 587.285 292.361C588 293.417 588.357 294.863 588.357 296.697C588.357 298.553 588 300.009 587.285 301.065C586.581 302.121 585.44 302.649 583.861 302.649C582.282 302.649 581.136 302.121 580.421 301.065C579.717 300.009 579.365 298.553 579.365 296.697ZM585.669 296.697C585.669 295.62 585.552 294.793 585.317 294.217C585.082 293.631 584.597 293.337 583.861 293.337C583.125 293.337 582.64 293.631 582.405 294.217C582.17 294.793 582.053 295.62 582.053 296.697C582.053 297.423 582.096 298.025 582.181 298.505C582.266 298.975 582.437 299.359 582.693 299.657C582.96 299.945 583.349 300.089 583.861 300.089C584.373 300.089 584.757 299.945 585.013 299.657C585.28 299.359 585.456 298.975 585.541 298.505C585.626 298.025 585.669 297.423 585.669 296.697Z" fill="#E9D4D4"/>
<path d="M886.573 293.561V291.017H891.005V302.697H888.157V293.561H886.573ZM894.796 296.425C893.794 295.892 893.292 295.055 893.292 293.913C893.292 293.337 893.442 292.815 893.74 292.345C894.039 291.865 894.492 291.487 895.1 291.209C895.708 290.921 896.455 290.777 897.34 290.777C898.226 290.777 898.967 290.921 899.564 291.209C900.172 291.487 900.626 291.865 900.924 292.345C901.223 292.815 901.372 293.337 901.372 293.913C901.372 294.489 901.234 294.991 900.956 295.417C900.69 295.844 900.327 296.18 899.868 296.425C900.444 296.703 900.887 297.087 901.196 297.577C901.506 298.057 901.66 298.623 901.66 299.273C901.66 300.031 901.468 300.687 901.084 301.241C900.7 301.785 900.178 302.201 899.516 302.489C898.866 302.777 898.14 302.921 897.34 302.921C896.54 302.921 895.81 302.777 895.148 302.489C894.498 302.201 893.98 301.785 893.596 301.241C893.212 300.687 893.02 300.031 893.02 299.273C893.02 298.612 893.175 298.041 893.484 297.561C893.794 297.071 894.231 296.692 894.796 296.425ZM898.716 294.329C898.716 293.892 898.588 293.556 898.332 293.321C898.087 293.076 897.756 292.953 897.34 292.953C896.924 292.953 896.588 293.076 896.332 293.321C896.087 293.567 895.964 293.908 895.964 294.345C895.964 294.761 896.092 295.092 896.348 295.337C896.604 295.572 896.935 295.689 897.34 295.689C897.746 295.689 898.076 295.567 898.332 295.321C898.588 295.076 898.716 294.745 898.716 294.329ZM897.34 297.609C896.839 297.609 896.434 297.748 896.124 298.025C895.815 298.292 895.66 298.665 895.66 299.145C895.66 299.593 895.81 299.961 896.108 300.249C896.418 300.537 896.828 300.681 897.34 300.681C897.852 300.681 898.252 300.537 898.54 300.249C898.839 299.961 898.988 299.593 898.988 299.145C898.988 298.676 898.834 298.303 898.524 298.025C898.226 297.748 897.831 297.609 897.34 297.609ZM903.251 296.697C903.251 294.863 903.603 293.417 904.307 292.361C905.022 291.305 906.169 290.777 907.747 290.777C909.326 290.777 910.467 291.305 911.171 292.361C911.886 293.417 912.243 294.863 912.243 296.697C912.243 298.553 911.886 300.009 911.171 301.065C910.467 302.121 909.326 302.649 907.747 302.649C906.169 302.649 905.022 302.121 904.307 301.065C903.603 300.009 903.251 298.553 903.251 296.697ZM909.555 296.697C909.555 295.62 909.438 294.793 909.203 294.217C908.969 293.631 908.483 293.337 907.747 293.337C907.011 293.337 906.526 293.631 906.291 294.217C906.057 294.793 905.939 295.62 905.939 296.697C905.939 297.423 905.982 298.025 906.067 298.505C906.153 298.975 906.323 299.359 906.579 299.657C906.846 299.945 907.235 300.089 907.747 300.089C908.259 300.089 908.643 299.945 908.899 299.657C909.166 299.359 909.342 298.975 909.427 298.505C909.513 298.025 909.555 297.423 909.555 296.697ZM913.689 296.697C913.689 294.863 914.041 293.417 914.745 292.361C915.46 291.305 916.606 290.777 918.185 290.777C919.764 290.777 920.905 291.305 921.609 292.361C922.324 293.417 922.681 294.863 922.681 296.697C922.681 298.553 922.324 300.009 921.609 301.065C920.905 302.121 919.764 302.649 918.185 302.649C916.606 302.649 915.46 302.121 914.745 301.065C914.041 300.009 913.689 298.553 913.689 296.697ZM919.993 296.697C919.993 295.62 919.876 294.793 919.641 294.217C919.406 293.631 918.921 293.337 918.185 293.337C917.449 293.337 916.964 293.631 916.729 294.217C916.494 294.793 916.377 295.62 916.377 296.697C916.377 297.423 916.42 298.025 916.505 298.505C916.59 298.975 916.761 299.359 917.017 299.657C917.284 299.945 917.673 300.089 918.185 300.089C918.697 300.089 919.081 299.945 919.337 299.657C919.604 299.359 919.78 298.975 919.865 298.505C919.95 298.025 919.993 297.423 919.993 296.697Z" fill="#4AFF7C"/>
<path d="M1183.15 295.945V298.217H1176.11V295.945H1183.15Z" fill="#FF5C5C"/>
<circle cx="181.089" cy="297.208" r="15.0146" fill="#464954"/>
<path d="M187.098 303.965V302.463C187.098 301.667 186.781 300.903 186.218 300.34C185.655 299.777 184.891 299.46 184.095 299.46H178.089C177.292 299.46 176.529 299.777 175.965 300.34C175.402 300.903 175.086 301.667 175.086 302.463V303.965" stroke="#949494" stroke-width="2" stroke-linecap="round" stroke-linejoin="round"/>
<path d="M181.089 296.457C182.747 296.457 184.092 295.113 184.092 293.454C184.092 291.796 182.747 290.451 181.089 290.451C179.43 290.451 178.086 291.796 178.086 293.454C178.086 295.113 179.43 296.457 181.089 296.457Z" stroke="#949494" stroke-width="2" stroke-linecap="round" stroke-linejoin="round"/>
<line x1="131.636" y1="254.667" x2="1265.47" y2="254.667" stroke="#8B8B8B"/>
<path d="M224.833 381.553V392.785H222.097V386.049L219.585 392.785H217.377L214.849 386.033V392.785H212.113V381.553H215.345L218.497 389.329L221.617 381.553H224.833ZM226.257 388.305C226.257 387.388 226.427 386.583 226.769 385.889C227.121 385.196 227.595 384.663 228.193 384.289C228.79 383.916 229.457 383.729 230.193 383.729C230.822 383.729 231.371 383.857 231.841 384.113C232.321 384.369 232.689 384.705 232.945 385.121V383.857H235.681V392.785H232.945V391.521C232.678 391.937 232.305 392.273 231.825 392.529C231.355 392.785 230.806 392.913 230.177 392.913C229.451 392.913 228.79 392.727 228.193 392.353C227.595 391.969 227.121 391.431 226.769 390.737C226.427 390.033 226.257 389.223 226.257 388.305ZM232.945 388.321C232.945 387.639 232.753 387.1 232.369 386.705C231.995 386.311 231.537 386.113 230.993 386.113C230.449 386.113 229.985 386.311 229.601 386.705C229.227 387.089 229.041 387.623 229.041 388.305C229.041 388.988 229.227 389.532 229.601 389.937C229.985 390.332 230.449 390.529 230.993 390.529C231.537 390.529 231.995 390.332 232.369 389.937C232.753 389.543 232.945 389.004 232.945 388.321ZM242.636 390.465V392.785H241.244C240.252 392.785 239.479 392.545 238.924 392.065C238.369 391.575 238.092 390.78 238.092 389.681V386.129H237.004V383.857H238.092V381.681H240.828V383.857H242.62V386.129H240.828V389.713C240.828 389.98 240.892 390.172 241.02 390.289C241.148 390.407 241.361 390.465 241.66 390.465H242.636ZM249.648 383.761C250.672 383.761 251.493 384.103 252.112 384.785C252.731 385.457 253.04 386.385 253.04 387.569V392.785H250.32V387.937C250.32 387.34 250.165 386.876 249.856 386.545C249.547 386.215 249.131 386.049 248.608 386.049C248.085 386.049 247.669 386.215 247.36 386.545C247.051 386.876 246.896 387.34 246.896 387.937V392.785H244.16V380.945H246.896V385.057C247.173 384.663 247.552 384.348 248.032 384.113C248.512 383.879 249.051 383.761 249.648 383.761ZM263.357 388.177C263.357 388.433 263.341 388.7 263.309 388.977H257.117C257.16 389.532 257.336 389.959 257.645 390.257C257.965 390.545 258.355 390.689 258.813 390.689C259.496 390.689 259.971 390.401 260.237 389.825H263.149C263 390.412 262.728 390.94 262.333 391.409C261.949 391.879 261.464 392.247 260.877 392.513C260.291 392.78 259.635 392.913 258.909 392.913C258.035 392.913 257.256 392.727 256.573 392.353C255.891 391.98 255.357 391.447 254.973 390.753C254.589 390.06 254.397 389.249 254.397 388.321C254.397 387.393 254.584 386.583 254.957 385.889C255.341 385.196 255.875 384.663 256.557 384.289C257.24 383.916 258.024 383.729 258.909 383.729C259.773 383.729 260.541 383.911 261.213 384.273C261.885 384.636 262.408 385.153 262.781 385.825C263.165 386.497 263.357 387.281 263.357 388.177ZM260.557 387.457C260.557 386.988 260.397 386.615 260.077 386.337C259.757 386.06 259.357 385.921 258.877 385.921C258.419 385.921 258.029 386.055 257.709 386.321C257.4 386.588 257.208 386.967 257.133 387.457H260.557ZM277.617 383.857L275.201 392.785H272.177L270.769 386.993L269.313 392.785H266.305L263.873 383.857H266.609L267.873 390.241L269.377 383.857H272.273L273.793 390.209L275.041 383.857H277.617ZM294.771 381.553V392.785H292.035V386.049L289.523 392.785H287.315L284.787 386.033V392.785H282.051V381.553H285.283L288.435 389.329L291.555 381.553H294.771ZM296.194 388.321C296.194 387.393 296.381 386.583 296.754 385.889C297.138 385.196 297.666 384.663 298.338 384.289C299.021 383.916 299.799 383.729 300.674 383.729C301.794 383.729 302.727 384.023 303.474 384.609C304.231 385.196 304.727 386.023 304.962 387.089H302.05C301.805 386.407 301.33 386.065 300.626 386.065C300.125 386.065 299.725 386.263 299.426 386.657C299.127 387.041 298.978 387.596 298.978 388.321C298.978 389.047 299.127 389.607 299.426 390.001C299.725 390.385 300.125 390.577 300.626 390.577C301.33 390.577 301.805 390.236 302.05 389.553H304.962C304.727 390.599 304.231 391.42 303.474 392.017C302.717 392.615 301.783 392.913 300.674 392.913C299.799 392.913 299.021 392.727 298.338 392.353C297.666 391.98 297.138 391.447 296.754 390.753C296.381 390.06 296.194 389.249 296.194 388.321ZM305.882 388.321C305.882 387.393 306.068 386.583 306.442 385.889C306.826 385.196 307.354 384.663 308.026 384.289C308.708 383.916 309.487 383.729 310.362 383.729C311.482 383.729 312.415 384.023 313.162 384.609C313.919 385.196 314.415 386.023 314.65 387.089H311.738C311.492 386.407 311.018 386.065 310.314 386.065C309.812 386.065 309.412 386.263 309.114 386.657C308.815 387.041 308.666 387.596 308.666 388.321C308.666 389.047 308.815 389.607 309.114 390.001C309.412 390.385 309.812 390.577 310.314 390.577C311.018 390.577 311.492 390.236 311.738 389.553H314.65C314.415 390.599 313.919 391.42 313.162 392.017C312.404 392.615 311.471 392.913 310.362 392.913C309.487 392.913 308.708 392.727 308.026 392.353C307.354 391.98 306.826 391.447 306.442 390.753C306.068 390.06 305.882 389.249 305.882 388.321ZM315.569 388.305C315.569 387.388 315.74 386.583 316.081 385.889C316.433 385.196 316.908 384.663 317.505 384.289C318.102 383.916 318.769 383.729 319.505 383.729C320.134 383.729 320.684 383.857 321.153 384.113C321.633 384.369 322.001 384.705 322.257 385.121V383.857H324.993V392.785H322.257V391.521C321.99 391.937 321.617 392.273 321.137 392.529C320.668 392.785 320.118 392.913 319.489 392.913C318.764 392.913 318.102 392.727 317.505 392.353C316.908 391.969 316.433 391.431 316.081 390.737C315.74 390.033 315.569 389.223 315.569 388.305ZM322.257 388.321C322.257 387.639 322.065 387.1 321.681 386.705C321.308 386.311 320.849 386.113 320.305 386.113C319.761 386.113 319.297 386.311 318.913 386.705C318.54 387.089 318.353 387.623 318.353 388.305C318.353 388.988 318.54 389.532 318.913 389.937C319.297 390.332 319.761 390.529 320.305 390.529C320.849 390.529 321.308 390.332 321.681 389.937C322.065 389.543 322.257 389.004 322.257 388.321ZM329.708 385.345C330.028 384.855 330.428 384.471 330.908 384.193C331.388 383.905 331.922 383.761 332.508 383.761V386.657H331.756C331.074 386.657 330.562 386.807 330.22 387.105C329.879 387.393 329.708 387.905 329.708 388.641V392.785H326.972V383.857H329.708V385.345ZM338.792 390.465V392.785H337.4C336.408 392.785 335.635 392.545 335.08 392.065C334.526 391.575 334.248 390.78 334.248 389.681V386.129H333.16V383.857H334.248V381.681H336.984V383.857H338.776V386.129H336.984V389.713C336.984 389.98 337.048 390.172 337.176 390.289C337.304 390.407 337.518 390.465 337.816 390.465H338.792ZM345.804 383.761C346.828 383.761 347.65 384.103 348.268 384.785C348.887 385.457 349.196 386.385 349.196 387.569V392.785H346.476V387.937C346.476 387.34 346.322 386.876 346.012 386.545C345.703 386.215 345.287 386.049 344.764 386.049C344.242 386.049 343.826 386.215 343.516 386.545C343.207 386.876 343.052 387.34 343.052 387.937V392.785H340.316V380.945H343.052V385.057C343.33 384.663 343.708 384.348 344.188 384.113C344.668 383.879 345.207 383.761 345.804 383.761ZM359.513 388.177C359.513 388.433 359.497 388.7 359.465 388.977H353.273C353.316 389.532 353.492 389.959 353.801 390.257C354.121 390.545 354.511 390.689 354.969 390.689C355.652 390.689 356.127 390.401 356.393 389.825H359.305C359.156 390.412 358.884 390.94 358.489 391.409C358.105 391.879 357.62 392.247 357.033 392.513C356.447 392.78 355.791 392.913 355.065 392.913C354.191 392.913 353.412 392.727 352.729 392.353C352.047 391.98 351.513 391.447 351.129 390.753C350.745 390.06 350.553 389.249 350.553 388.321C350.553 387.393 350.74 386.583 351.113 385.889C351.497 385.196 352.031 384.663 352.713 384.289C353.396 383.916 354.18 383.729 355.065 383.729C355.929 383.729 356.697 383.911 357.369 384.273C358.041 384.636 358.564 385.153 358.937 385.825C359.321 386.497 359.513 387.281 359.513 388.177ZM356.713 387.457C356.713 386.988 356.553 386.615 356.233 386.337C355.913 386.06 355.513 385.921 355.033 385.921C354.575 385.921 354.185 386.055 353.865 386.321C353.556 386.588 353.364 386.967 353.289 387.457H356.713ZM370.077 383.857L364.477 397.025H361.533L363.581 392.481L359.949 383.857H363.005L365.069 389.441L367.117 383.857H370.077Z" fill="#E9D4D4"/>
<path d="M219.473 471.616V479.264C219.473 480.448 219.137 481.36 218.465 482C217.804 482.64 216.908 482.96 215.777 482.96C214.593 482.96 213.644 482.624 212.929 481.952C212.215 481.28 211.857 480.326 211.857 479.088H214.577C214.577 479.558 214.673 479.915 214.865 480.16C215.057 480.395 215.335 480.512 215.697 480.512C216.028 480.512 216.284 480.406 216.465 480.192C216.647 479.979 216.737 479.67 216.737 479.264V471.616H219.473ZM221.139 478.368C221.139 477.451 221.31 476.646 221.651 475.952C222.003 475.259 222.478 474.726 223.075 474.352C223.673 473.979 224.339 473.792 225.075 473.792C225.705 473.792 226.254 473.92 226.723 474.176C227.203 474.432 227.571 474.768 227.827 475.184V473.92H230.563V482.848H227.827V481.584C227.561 482 227.187 482.336 226.707 482.592C226.238 482.848 225.689 482.976 225.059 482.976C224.334 482.976 223.673 482.79 223.075 482.416C222.478 482.032 222.003 481.494 221.651 480.8C221.31 480.096 221.139 479.286 221.139 478.368ZM227.827 478.384C227.827 477.702 227.635 477.163 227.251 476.768C226.878 476.374 226.419 476.176 225.875 476.176C225.331 476.176 224.867 476.374 224.483 476.768C224.11 477.152 223.923 477.686 223.923 478.368C223.923 479.051 224.11 479.595 224.483 480C224.867 480.395 225.331 480.592 225.875 480.592C226.419 480.592 226.878 480.395 227.251 480C227.635 479.606 227.827 479.067 227.827 478.384ZM243.935 473.824C245.044 473.824 245.924 474.16 246.575 474.832C247.236 475.504 247.567 476.438 247.567 477.632V482.848H244.847V478C244.847 477.424 244.692 476.982 244.383 476.672C244.084 476.352 243.668 476.192 243.135 476.192C242.601 476.192 242.18 476.352 241.871 476.672C241.572 476.982 241.423 477.424 241.423 478V482.848H238.703V478C238.703 477.424 238.548 476.982 238.239 476.672C237.94 476.352 237.524 476.192 236.991 476.192C236.457 476.192 236.036 476.352 235.727 476.672C235.428 476.982 235.279 477.424 235.279 478V482.848H232.543V473.92H235.279V475.04C235.556 474.667 235.919 474.374 236.367 474.16C236.815 473.936 237.321 473.824 237.887 473.824C238.559 473.824 239.156 473.968 239.679 474.256C240.212 474.544 240.628 474.955 240.927 475.488C241.236 474.998 241.657 474.598 242.191 474.288C242.724 473.979 243.305 473.824 243.935 473.824ZM257.896 478.24C257.896 478.496 257.88 478.763 257.848 479.04H251.656C251.699 479.595 251.875 480.022 252.184 480.32C252.504 480.608 252.894 480.752 253.352 480.752C254.035 480.752 254.51 480.464 254.776 479.888H257.688C257.539 480.475 257.267 481.003 256.872 481.472C256.488 481.942 256.003 482.31 255.416 482.576C254.83 482.843 254.174 482.976 253.448 482.976C252.574 482.976 251.795 482.79 251.112 482.416C250.43 482.043 249.896 481.51 249.512 480.816C249.128 480.123 248.936 479.312 248.936 478.384C248.936 477.456 249.123 476.646 249.496 475.952C249.88 475.259 250.414 474.726 251.096 474.352C251.779 473.979 252.563 473.792 253.448 473.792C254.312 473.792 255.08 473.974 255.752 474.336C256.424 474.699 256.947 475.216 257.32 475.888C257.704 476.56 257.896 477.344 257.896 478.24ZM255.096 477.52C255.096 477.051 254.936 476.678 254.616 476.4C254.296 476.123 253.896 475.984 253.416 475.984C252.958 475.984 252.568 476.118 252.248 476.384C251.939 476.651 251.747 477.03 251.672 477.52H255.096ZM262.972 482.976C262.193 482.976 261.5 482.843 260.892 482.576C260.284 482.31 259.804 481.947 259.452 481.488C259.1 481.019 258.902 480.496 258.86 479.92H261.564C261.596 480.23 261.74 480.48 261.996 480.672C262.252 480.864 262.566 480.96 262.94 480.96C263.281 480.96 263.542 480.896 263.724 480.768C263.916 480.63 264.012 480.454 264.012 480.24C264.012 479.984 263.878 479.798 263.612 479.68C263.345 479.552 262.913 479.414 262.316 479.264C261.676 479.115 261.142 478.96 260.716 478.8C260.289 478.63 259.921 478.368 259.612 478.016C259.302 477.654 259.148 477.168 259.148 476.56C259.148 476.048 259.286 475.584 259.564 475.168C259.852 474.742 260.268 474.406 260.812 474.16C261.366 473.915 262.022 473.792 262.78 473.792C263.9 473.792 264.78 474.07 265.42 474.624C266.07 475.179 266.444 475.915 266.54 476.832H264.012C263.969 476.523 263.83 476.278 263.596 476.096C263.372 475.915 263.073 475.824 262.7 475.824C262.38 475.824 262.134 475.888 261.964 476.016C261.793 476.134 261.708 476.299 261.708 476.512C261.708 476.768 261.841 476.96 262.108 477.088C262.385 477.216 262.812 477.344 263.388 477.472C264.049 477.643 264.588 477.814 265.004 477.984C265.42 478.144 265.782 478.411 266.092 478.784C266.412 479.147 266.577 479.638 266.588 480.256C266.588 480.779 266.438 481.248 266.14 481.664C265.852 482.07 265.43 482.39 264.876 482.624C264.332 482.859 263.697 482.976 262.972 482.976ZM281.38 471.616V482.848H278.644V478.224H274.388V482.848H271.652V471.616H274.388V476.016H278.644V471.616H281.38ZM291.771 478.24C291.771 478.496 291.755 478.763 291.723 479.04H285.531C285.574 479.595 285.75 480.022 286.059 480.32C286.379 480.608 286.769 480.752 287.227 480.752C287.91 480.752 288.385 480.464 288.651 479.888H291.563C291.414 480.475 291.142 481.003 290.747 481.472C290.363 481.942 289.878 482.31 289.291 482.576C288.705 482.843 288.049 482.976 287.323 482.976C286.449 482.976 285.67 482.79 284.987 482.416C284.305 482.043 283.771 481.51 283.387 480.816C283.003 480.123 282.811 479.312 282.811 478.384C282.811 477.456 282.998 476.646 283.371 475.952C283.755 475.259 284.289 474.726 284.971 474.352C285.654 473.979 286.438 473.792 287.323 473.792C288.187 473.792 288.955 473.974 289.627 474.336C290.299 474.699 290.822 475.216 291.195 475.888C291.579 476.56 291.771 477.344 291.771 478.24ZM288.971 477.52C288.971 477.051 288.811 476.678 288.491 476.4C288.171 476.123 287.771 475.984 287.291 475.984C286.833 475.984 286.443 476.118 286.123 476.384C285.814 476.651 285.622 477.03 285.547 477.52H288.971ZM298.191 480.528V482.848H296.799C295.807 482.848 295.033 482.608 294.479 482.128C293.924 481.638 293.647 480.843 293.647 479.744V476.192H292.559V473.92H293.647V471.744H296.383V473.92H298.175V476.192H296.383V479.776C296.383 480.043 296.447 480.235 296.575 480.352C296.703 480.47 296.916 480.528 297.215 480.528H298.191ZM304.195 476.192H302.723V482.848H299.987V476.192H298.995V473.92H299.987V473.664C299.987 472.566 300.301 471.734 300.931 471.168C301.56 470.592 302.483 470.304 303.699 470.304C303.901 470.304 304.051 470.31 304.147 470.32V472.64C303.624 472.608 303.256 472.683 303.043 472.864C302.829 473.046 302.723 473.371 302.723 473.84V473.92H304.195V476.192ZM306.856 472.992C306.376 472.992 305.982 472.854 305.672 472.576C305.374 472.288 305.224 471.936 305.224 471.52C305.224 471.094 305.374 470.742 305.672 470.464C305.982 470.176 306.376 470.032 306.856 470.032C307.326 470.032 307.71 470.176 308.008 470.464C308.318 470.742 308.472 471.094 308.472 471.52C308.472 471.936 308.318 472.288 308.008 472.576C307.71 472.854 307.326 472.992 306.856 472.992ZM308.216 473.92V482.848H305.48V473.92H308.216ZM318.615 478.24C318.615 478.496 318.599 478.763 318.567 479.04H312.375C312.418 479.595 312.594 480.022 312.903 480.32C313.223 480.608 313.612 480.752 314.071 480.752C314.754 480.752 315.228 480.464 315.495 479.888H318.407C318.258 480.475 317.986 481.003 317.591 481.472C317.207 481.942 316.722 482.31 316.135 482.576C315.548 482.843 314.892 482.976 314.167 482.976C313.292 482.976 312.514 482.79 311.831 482.416C311.148 482.043 310.615 481.51 310.231 480.816C309.847 480.123 309.655 479.312 309.655 478.384C309.655 477.456 309.842 476.646 310.215 475.952C310.599 475.259 311.132 474.726 311.815 474.352C312.498 473.979 313.282 473.792 314.167 473.792C315.031 473.792 315.799 473.974 316.471 474.336C317.143 474.699 317.666 475.216 318.039 475.888C318.423 476.56 318.615 477.344 318.615 478.24ZM315.815 477.52C315.815 477.051 315.655 476.678 315.335 476.4C315.015 476.123 314.615 475.984 314.135 475.984C313.676 475.984 313.287 476.118 312.967 476.384C312.658 476.651 312.466 477.03 312.391 477.52H315.815ZM322.794 471.008V482.848H320.058V471.008H322.794ZM324.233 478.368C324.233 477.451 324.404 476.646 324.745 475.952C325.097 475.259 325.572 474.726 326.169 474.352C326.766 473.979 327.433 473.792 328.169 473.792C328.756 473.792 329.289 473.915 329.769 474.16C330.26 474.406 330.644 474.736 330.921 475.152V471.008H333.657V482.848H330.921V481.568C330.665 481.995 330.297 482.336 329.817 482.592C329.348 482.848 328.798 482.976 328.169 482.976C327.433 482.976 326.766 482.79 326.169 482.416C325.572 482.032 325.097 481.494 324.745 480.8C324.404 480.096 324.233 479.286 324.233 478.368ZM330.921 478.384C330.921 477.702 330.729 477.163 330.345 476.768C329.972 476.374 329.513 476.176 328.969 476.176C328.425 476.176 327.961 476.374 327.577 476.768C327.204 477.152 327.017 477.686 327.017 478.368C327.017 479.051 327.204 479.595 327.577 480C327.961 480.395 328.425 480.592 328.969 480.592C329.513 480.592 329.972 480.395 330.345 480C330.729 479.606 330.921 479.067 330.921 478.384Z" fill="#E9D4D4"/>
<path d="M218.913 549.195C219.564 549.334 220.086 549.659 220.481 550.171C220.876 550.673 221.073 551.249 221.073 551.899C221.073 552.838 220.742 553.585 220.081 554.139C219.43 554.683 218.518 554.955 217.345 554.955H212.113V543.723H217.169C218.31 543.723 219.201 543.985 219.841 544.507C220.492 545.03 220.817 545.739 220.817 546.635C220.817 547.297 220.641 547.846 220.289 548.283C219.948 548.721 219.489 549.025 218.913 549.195ZM214.849 548.267H216.641C217.089 548.267 217.43 548.171 217.665 547.979C217.91 547.777 218.033 547.483 218.033 547.099C218.033 546.715 217.91 546.422 217.665 546.219C217.43 546.017 217.089 545.915 216.641 545.915H214.849V548.267ZM216.865 552.747C217.324 552.747 217.676 552.646 217.921 552.443C218.177 552.23 218.305 551.926 218.305 551.531C218.305 551.137 218.172 550.827 217.905 550.603C217.649 550.379 217.292 550.267 216.833 550.267H214.849V552.747H216.865ZM224.036 545.099C223.556 545.099 223.161 544.961 222.852 544.683C222.553 544.395 222.404 544.043 222.404 543.627C222.404 543.201 222.553 542.849 222.852 542.571C223.161 542.283 223.556 542.139 224.036 542.139C224.505 542.139 224.889 542.283 225.188 542.571C225.497 542.849 225.652 543.201 225.652 543.627C225.652 544.043 225.497 544.395 225.188 544.683C224.889 544.961 224.505 545.099 224.036 545.099ZM225.396 546.027V554.955H222.66V546.027H225.396ZM230.115 543.115V554.955H227.379V543.115H230.115ZM234.833 543.115V554.955H232.097V543.115H234.833ZM238.192 545.099C237.712 545.099 237.318 544.961 237.008 544.683C236.71 544.395 236.56 544.043 236.56 543.627C236.56 543.201 236.71 542.849 237.008 542.571C237.318 542.283 237.712 542.139 238.192 542.139C238.662 542.139 239.046 542.283 239.344 542.571C239.654 542.849 239.808 543.201 239.808 543.627C239.808 544.043 239.654 544.395 239.344 544.683C239.046 544.961 238.662 545.099 238.192 545.099ZM239.552 546.027V554.955H236.816V546.027H239.552ZM249.951 550.347C249.951 550.603 249.935 550.87 249.903 551.147H243.711C243.754 551.702 243.93 552.129 244.239 552.427C244.559 552.715 244.948 552.859 245.407 552.859C246.09 552.859 246.564 552.571 246.831 551.995H249.743C249.594 552.582 249.322 553.11 248.927 553.579C248.543 554.049 248.058 554.417 247.471 554.683C246.884 554.95 246.228 555.083 245.503 555.083C244.628 555.083 243.85 554.897 243.167 554.523C242.484 554.15 241.951 553.617 241.567 552.923C241.183 552.23 240.991 551.419 240.991 550.491C240.991 549.563 241.178 548.753 241.551 548.059C241.935 547.366 242.468 546.833 243.151 546.459C243.834 546.086 244.618 545.899 245.503 545.899C246.367 545.899 247.135 546.081 247.807 546.443C248.479 546.806 249.002 547.323 249.375 547.995C249.759 548.667 249.951 549.451 249.951 550.347ZM247.151 549.627C247.151 549.158 246.991 548.785 246.671 548.507C246.351 548.23 245.951 548.091 245.471 548.091C245.012 548.091 244.623 548.225 244.303 548.491C243.994 548.758 243.802 549.137 243.727 549.627H247.151ZM219.105 576.971H214.913L214.241 578.955H211.377L215.441 567.723H218.609L222.673 578.955H219.777L219.105 576.971ZM218.401 574.859L217.009 570.747L215.633 574.859H218.401ZM226.646 571.515C226.966 571.025 227.366 570.641 227.846 570.363C228.326 570.075 228.859 569.931 229.446 569.931V572.827H228.694C228.011 572.827 227.499 572.977 227.158 573.275C226.817 573.563 226.646 574.075 226.646 574.811V578.955H223.91V570.027H226.646V571.515ZM242.146 569.931C243.255 569.931 244.135 570.267 244.786 570.939C245.447 571.611 245.778 572.545 245.778 573.739V578.955H243.058V574.107C243.058 573.531 242.903 573.089 242.594 572.779C242.295 572.459 241.879 572.299 241.346 572.299C240.812 572.299 240.391 572.459 240.082 572.779C239.783 573.089 239.634 573.531 239.634 574.107V578.955H236.914V574.107C236.914 573.531 236.759 573.089 236.45 572.779C236.151 572.459 235.735 572.299 235.202 572.299C234.668 572.299 234.247 572.459 233.938 572.779C233.639 573.089 233.49 573.531 233.49 574.107V578.955H230.754V570.027H233.49V571.147C233.767 570.774 234.13 570.481 234.578 570.267C235.026 570.043 235.532 569.931 236.098 569.931C236.77 569.931 237.367 570.075 237.89 570.363C238.423 570.651 238.839 571.062 239.138 571.595C239.447 571.105 239.868 570.705 240.402 570.395C240.935 570.086 241.516 569.931 242.146 569.931ZM251.323 579.083C250.545 579.083 249.851 578.95 249.243 578.683C248.635 578.417 248.155 578.054 247.803 577.595C247.451 577.126 247.254 576.603 247.211 576.027H249.915C249.947 576.337 250.091 576.587 250.347 576.779C250.603 576.971 250.918 577.067 251.291 577.067C251.633 577.067 251.894 577.003 252.075 576.875C252.267 576.737 252.363 576.561 252.363 576.347C252.363 576.091 252.23 575.905 251.963 575.787C251.697 575.659 251.265 575.521 250.667 575.371C250.027 575.222 249.494 575.067 249.067 574.907C248.641 574.737 248.273 574.475 247.963 574.123C247.654 573.761 247.499 573.275 247.499 572.667C247.499 572.155 247.638 571.691 247.915 571.275C248.203 570.849 248.619 570.513 249.163 570.267C249.718 570.022 250.374 569.899 251.131 569.899C252.251 569.899 253.131 570.177 253.771 570.731C254.422 571.286 254.795 572.022 254.891 572.939H252.363C252.321 572.63 252.182 572.385 251.947 572.203C251.723 572.022 251.425 571.931 251.051 571.931C250.731 571.931 250.486 571.995 250.315 572.123C250.145 572.241 250.059 572.406 250.059 572.619C250.059 572.875 250.193 573.067 250.459 573.195C250.737 573.323 251.163 573.451 251.739 573.579C252.401 573.75 252.939 573.921 253.355 574.091C253.771 574.251 254.134 574.518 254.443 574.891C254.763 575.254 254.929 575.745 254.939 576.363C254.939 576.886 254.79 577.355 254.491 577.771C254.203 578.177 253.782 578.497 253.227 578.731C252.683 578.966 252.049 579.083 251.323 579.083ZM261.589 576.635V578.955H260.197C259.205 578.955 258.432 578.715 257.877 578.235C257.322 577.745 257.045 576.95 257.045 575.851V572.299H255.957V570.027H257.045V567.851H259.781V570.027H261.573V572.299H259.781V575.883C259.781 576.15 259.845 576.342 259.973 576.459C260.101 576.577 260.314 576.635 260.613 576.635H261.589ZM265.849 571.515C266.169 571.025 266.569 570.641 267.049 570.363C267.529 570.075 268.062 569.931 268.649 569.931V572.827H267.897C267.214 572.827 266.702 572.977 266.361 573.275C266.02 573.563 265.849 574.075 265.849 574.811V578.955H263.113V570.027H265.849V571.515ZM274.021 579.083C273.146 579.083 272.357 578.897 271.653 578.523C270.96 578.15 270.41 577.617 270.005 576.923C269.61 576.23 269.413 575.419 269.413 574.491C269.413 573.574 269.616 572.769 270.021 572.075C270.426 571.371 270.981 570.833 271.685 570.459C272.389 570.086 273.178 569.899 274.053 569.899C274.928 569.899 275.717 570.086 276.421 570.459C277.125 570.833 277.68 571.371 278.085 572.075C278.49 572.769 278.693 573.574 278.693 574.491C278.693 575.409 278.485 576.219 278.069 576.923C277.664 577.617 277.104 578.15 276.389 578.523C275.685 578.897 274.896 579.083 274.021 579.083ZM274.021 576.715C274.544 576.715 274.986 576.523 275.349 576.139C275.722 575.755 275.909 575.206 275.909 574.491C275.909 573.777 275.728 573.227 275.365 572.843C275.013 572.459 274.576 572.267 274.053 572.267C273.52 572.267 273.077 572.459 272.725 572.843C272.373 573.217 272.197 573.766 272.197 574.491C272.197 575.206 272.368 575.755 272.709 576.139C273.061 576.523 273.498 576.715 274.021 576.715ZM285.584 569.931C286.63 569.931 287.462 570.273 288.08 570.955C288.71 571.627 289.024 572.555 289.024 573.739V578.955H286.304V574.107C286.304 573.51 286.15 573.046 285.84 572.715C285.531 572.385 285.115 572.219 284.592 572.219C284.07 572.219 283.654 572.385 283.344 572.715C283.035 573.046 282.88 573.51 282.88 574.107V578.955H280.144V570.027H282.88V571.211C283.158 570.817 283.531 570.507 284 570.283C284.47 570.049 284.998 569.931 285.584 569.931ZM294.318 569.899C294.947 569.899 295.496 570.027 295.966 570.283C296.446 570.539 296.814 570.875 297.07 571.291V570.027H299.806V578.939C299.806 579.761 299.64 580.502 299.31 581.163C298.99 581.835 298.494 582.369 297.822 582.763C297.16 583.158 296.334 583.355 295.342 583.355C294.019 583.355 292.947 583.041 292.126 582.411C291.304 581.793 290.835 580.95 290.718 579.883H293.422C293.507 580.225 293.71 580.491 294.03 580.683C294.35 580.886 294.744 580.987 295.214 580.987C295.779 580.987 296.227 580.822 296.558 580.491C296.899 580.171 297.07 579.654 297.07 578.939V577.675C296.803 578.091 296.435 578.433 295.966 578.699C295.496 578.955 294.947 579.083 294.318 579.083C293.582 579.083 292.915 578.897 292.318 578.523C291.72 578.139 291.246 577.601 290.894 576.907C290.552 576.203 290.382 575.393 290.382 574.475C290.382 573.558 290.552 572.753 290.894 572.059C291.246 571.366 291.72 570.833 292.318 570.459C292.915 570.086 293.582 569.899 294.318 569.899ZM297.07 574.491C297.07 573.809 296.878 573.27 296.494 572.875C296.12 572.481 295.662 572.283 295.118 572.283C294.574 572.283 294.11 572.481 293.726 572.875C293.352 573.259 293.166 573.793 293.166 574.475C293.166 575.158 293.352 575.702 293.726 576.107C294.11 576.502 294.574 576.699 295.118 576.699C295.662 576.699 296.12 576.502 296.494 576.107C296.878 575.713 297.07 575.174 297.07 574.491Z" fill="#E9D4D4"/>
<path d="M562.337 383.153L558.321 392.785H555.521L559.585 383.457H554.609V381.121H562.337V383.153ZM563.444 386.785C563.444 384.951 563.796 383.505 564.5 382.449C565.215 381.393 566.361 380.865 567.94 380.865C569.519 380.865 570.66 381.393 571.364 382.449C572.079 383.505 572.436 384.951 572.436 386.785C572.436 388.641 572.079 390.097 571.364 391.153C570.66 392.209 569.519 392.737 567.94 392.737C566.361 392.737 565.215 392.209 564.5 391.153C563.796 390.097 563.444 388.641 563.444 386.785ZM569.748 386.785C569.748 385.708 569.631 384.881 569.396 384.305C569.161 383.719 568.676 383.425 567.94 383.425C567.204 383.425 566.719 383.719 566.484 384.305C566.249 384.881 566.132 385.708 566.132 386.785C566.132 387.511 566.175 388.113 566.26 388.593C566.345 389.063 566.516 389.447 566.772 389.745C567.039 390.033 567.428 390.177 567.94 390.177C568.452 390.177 568.836 390.033 569.092 389.745C569.359 389.447 569.535 389.063 569.62 388.593C569.705 388.113 569.748 387.511 569.748 386.785ZM573.881 386.785C573.881 384.951 574.233 383.505 574.937 382.449C575.652 381.393 576.799 380.865 578.377 380.865C579.956 380.865 581.097 381.393 581.801 382.449C582.516 383.505 582.873 384.951 582.873 386.785C582.873 388.641 582.516 390.097 581.801 391.153C581.097 392.209 579.956 392.737 578.377 392.737C576.799 392.737 575.652 392.209 574.937 391.153C574.233 390.097 573.881 388.641 573.881 386.785ZM580.185 386.785C580.185 385.708 580.068 384.881 579.833 384.305C579.599 383.719 579.113 383.425 578.377 383.425C577.641 383.425 577.156 383.719 576.921 384.305C576.687 384.881 576.569 385.708 576.569 386.785C576.569 387.511 576.612 388.113 576.697 388.593C576.783 389.063 576.953 389.447 577.209 389.745C577.476 390.033 577.865 390.177 578.377 390.177C578.889 390.177 579.273 390.033 579.529 389.745C579.796 389.447 579.972 389.063 580.057 388.593C580.143 388.113 580.185 387.511 580.185 386.785ZM584.319 386.785C584.319 384.951 584.671 383.505 585.375 382.449C586.09 381.393 587.236 380.865 588.815 380.865C590.394 380.865 591.535 381.393 592.239 382.449C592.954 383.505 593.311 384.951 593.311 386.785C593.311 388.641 592.954 390.097 592.239 391.153C591.535 392.209 590.394 392.737 588.815 392.737C587.236 392.737 586.09 392.209 585.375 391.153C584.671 390.097 584.319 388.641 584.319 386.785ZM590.623 386.785C590.623 385.708 590.506 384.881 590.271 384.305C590.036 383.719 589.551 383.425 588.815 383.425C588.079 383.425 587.594 383.719 587.359 384.305C587.124 384.881 587.007 385.708 587.007 386.785C587.007 387.511 587.05 388.113 587.135 388.593C587.22 389.063 587.391 389.447 587.647 389.745C587.914 390.033 588.303 390.177 588.815 390.177C589.327 390.177 589.711 390.033 589.967 389.745C590.234 389.447 590.41 389.063 590.495 388.593C590.58 388.113 590.623 387.511 590.623 386.785Z" fill="#E9D4D4"/>
<path d="M561.735 473.737V471.193H566.167V482.873H563.319V473.737H561.735ZM567.942 480.681C568.305 480.393 568.47 480.26 568.438 480.281C569.484 479.417 570.305 478.708 570.902 478.153C571.51 477.599 572.022 477.017 572.438 476.409C572.854 475.801 573.062 475.209 573.062 474.633C573.062 474.196 572.961 473.855 572.758 473.609C572.556 473.364 572.252 473.241 571.846 473.241C571.441 473.241 571.121 473.396 570.886 473.705C570.662 474.004 570.55 474.431 570.55 474.985H567.91C567.932 474.079 568.124 473.321 568.486 472.713C568.86 472.105 569.345 471.657 569.942 471.369C570.55 471.081 571.222 470.937 571.958 470.937C573.228 470.937 574.182 471.263 574.822 471.913C575.473 472.564 575.798 473.412 575.798 474.457C575.798 475.599 575.409 476.66 574.63 477.641C573.852 478.612 572.86 479.561 571.654 480.489H575.974V482.713H567.942V480.681ZM577.179 476.873C577.179 475.039 577.531 473.593 578.235 472.537C578.95 471.481 580.096 470.953 581.675 470.953C583.254 470.953 584.395 471.481 585.099 472.537C585.814 473.593 586.171 475.039 586.171 476.873C586.171 478.729 585.814 480.185 585.099 481.241C584.395 482.297 583.254 482.825 581.675 482.825C580.096 482.825 578.95 482.297 578.235 481.241C577.531 480.185 577.179 478.729 577.179 476.873ZM583.483 476.873C583.483 475.796 583.366 474.969 583.131 474.393C582.896 473.807 582.411 473.513 581.675 473.513C580.939 473.513 580.454 473.807 580.219 474.393C579.984 474.969 579.867 475.796 579.867 476.873C579.867 477.599 579.91 478.201 579.995 478.681C580.08 479.151 580.251 479.535 580.507 479.833C580.774 480.121 581.163 480.265 581.675 480.265C582.187 480.265 582.571 480.121 582.827 479.833C583.094 479.535 583.27 479.151 583.355 478.681C583.44 478.201 583.483 477.599 583.483 476.873Z" fill="#E9D4D4"/>
<path d="M571.147 557.819V555.275H575.579V566.955H572.731V557.819H571.147Z" fill="#E9D4D4"/>
<path d="M879.202 383.649V381.105H883.634V392.785H880.786V383.649H879.202ZM885.569 390.705V388.497L890.625 381.265H893.681V388.337H894.993V390.705H893.681V392.785H890.945V390.705H885.569ZM891.137 384.273L888.449 388.337H891.137V384.273ZM899.549 390.257L897.773 394.849H896.029L896.957 390.257H899.549ZM900.927 386.785C900.927 384.951 901.279 383.505 901.983 382.449C902.698 381.393 903.844 380.865 905.423 380.865C907.002 380.865 908.143 381.393 908.847 382.449C909.562 383.505 909.919 384.951 909.919 386.785C909.919 388.641 909.562 390.097 908.847 391.153C908.143 392.209 907.002 392.737 905.423 392.737C903.844 392.737 902.698 392.209 901.983 391.153C901.279 390.097 900.927 388.641 900.927 386.785ZM907.231 386.785C907.231 385.708 907.114 384.881 906.879 384.305C906.644 383.719 906.159 383.425 905.423 383.425C904.687 383.425 904.202 383.719 903.967 384.305C903.732 384.881 903.615 385.708 903.615 386.785C903.615 387.511 903.658 388.113 903.743 388.593C903.828 389.063 903.999 389.447 904.255 389.745C904.522 390.033 904.911 390.177 905.423 390.177C905.935 390.177 906.319 390.033 906.575 389.745C906.842 389.447 907.018 389.063 907.103 388.593C907.188 388.113 907.231 387.511 907.231 386.785ZM911.365 386.785C911.365 384.951 911.717 383.505 912.421 382.449C913.135 381.393 914.282 380.865 915.861 380.865C917.439 380.865 918.581 381.393 919.285 382.449C919.999 383.505 920.357 384.951 920.357 386.785C920.357 388.641 919.999 390.097 919.285 391.153C918.581 392.209 917.439 392.737 915.861 392.737C914.282 392.737 913.135 392.209 912.421 391.153C911.717 390.097 911.365 388.641 911.365 386.785ZM917.669 386.785C917.669 385.708 917.551 384.881 917.317 384.305C917.082 383.719 916.597 383.425 915.861 383.425C915.125 383.425 914.639 383.719 914.405 384.305C914.17 384.881 914.053 385.708 914.053 386.785C914.053 387.511 914.095 388.113 914.181 388.593C914.266 389.063 914.437 389.447 914.693 389.745C914.959 390.033 915.349 390.177 915.861 390.177C916.373 390.177 916.757 390.033 917.013 389.745C917.279 389.447 917.455 389.063 917.541 388.593C917.626 388.113 917.669 387.511 917.669 386.785ZM921.802 386.785C921.802 384.951 922.154 383.505 922.858 382.449C923.573 381.393 924.719 380.865 926.298 380.865C927.877 380.865 929.018 381.393 929.722 382.449C930.437 383.505 930.794 384.951 930.794 386.785C930.794 388.641 930.437 390.097 929.722 391.153C929.018 392.209 927.877 392.737 926.298 392.737C924.719 392.737 923.573 392.209 922.858 391.153C922.154 390.097 921.802 388.641 921.802 386.785ZM928.106 386.785C928.106 385.708 927.989 384.881 927.754 384.305C927.519 383.719 927.034 383.425 926.298 383.425C925.562 383.425 925.077 383.719 924.842 384.305C924.607 384.881 924.49 385.708 924.49 386.785C924.49 387.511 924.533 388.113 924.618 388.593C924.703 389.063 924.874 389.447 925.13 389.745C925.397 390.033 925.786 390.177 926.298 390.177C926.81 390.177 927.194 390.033 927.45 389.745C927.717 389.447 927.893 389.063 927.978 388.593C928.063 388.113 928.106 387.511 928.106 386.785Z" fill="#4AFF7C"/>
<path d="M908.377 476.121V478.393H901.337V476.121H908.377Z" fill="#4AFF7C"/>
<path d="M901.199 564.763C901.562 564.475 901.727 564.342 901.695 564.363C902.74 563.499 903.562 562.79 904.159 562.235C904.767 561.681 905.279 561.099 905.695 560.491C906.111 559.883 906.319 559.291 906.319 558.715C906.319 558.278 906.218 557.937 906.015 557.691C905.812 557.446 905.508 557.323 905.103 557.323C904.698 557.323 904.378 557.478 904.143 557.787C903.919 558.086 903.807 558.513 903.807 559.067H901.167C901.188 558.161 901.38 557.403 901.743 556.795C902.116 556.187 902.602 555.739 903.199 555.451C903.807 555.163 904.479 555.019 905.215 555.019C906.484 555.019 907.439 555.345 908.079 555.995C908.73 556.646 909.055 557.494 909.055 558.539C909.055 559.681 908.666 560.742 907.887 561.723C907.108 562.694 906.116 563.643 904.911 564.571H909.231V566.795H901.199V564.763Z" fill="#4AFF7C"/>
<path d="M1183.15 386.033V388.305H1176.11V386.033H1183.15Z" fill="#FF5C5C"/>
<path d="M1167.55 473.737V471.193H1171.98V482.873H1169.14V473.737H1167.55ZM1173.76 480.681C1174.12 480.393 1174.29 480.26 1174.25 480.281C1175.3 479.417 1176.12 478.708 1176.72 478.153C1177.33 477.599 1177.84 477.017 1178.25 476.409C1178.67 475.801 1178.88 475.209 1178.88 474.633C1178.88 474.196 1178.78 473.855 1178.57 473.609C1178.37 473.364 1178.07 473.241 1177.66 473.241C1177.26 473.241 1176.94 473.396 1176.7 473.705C1176.48 474.004 1176.37 474.431 1176.37 474.985H1173.73C1173.75 474.079 1173.94 473.321 1174.3 472.713C1174.68 472.105 1175.16 471.657 1175.76 471.369C1176.37 471.081 1177.04 470.937 1177.77 470.937C1179.04 470.937 1180 471.263 1180.64 471.913C1181.29 472.564 1181.61 473.412 1181.61 474.457C1181.61 475.599 1181.23 476.66 1180.45 477.641C1179.67 478.612 1178.68 479.561 1177.47 480.489H1181.79V482.713H1173.76V480.681ZM1183 476.873C1183 475.039 1183.35 473.593 1184.05 472.537C1184.77 471.481 1185.91 470.953 1187.49 470.953C1189.07 470.953 1190.21 471.481 1190.92 472.537C1191.63 473.593 1191.99 475.039 1191.99 476.873C1191.99 478.729 1191.63 480.185 1190.92 481.241C1190.21 482.297 1189.07 482.825 1187.49 482.825C1185.91 482.825 1184.77 482.297 1184.05 481.241C1183.35 480.185 1183 478.729 1183 476.873ZM1189.3 476.873C1189.3 475.796 1189.18 474.969 1188.95 474.393C1188.71 473.807 1188.23 473.513 1187.49 473.513C1186.76 473.513 1186.27 473.807 1186.04 474.393C1185.8 474.969 1185.68 475.796 1185.68 476.873C1185.68 477.599 1185.73 478.201 1185.81 478.681C1185.9 479.151 1186.07 479.535 1186.32 479.833C1186.59 480.121 1186.98 480.265 1187.49 480.265C1188 480.265 1188.39 480.121 1188.64 479.833C1188.91 479.535 1189.09 479.151 1189.17 478.681C1189.26 478.201 1189.3 477.599 1189.3 476.873Z" fill="#FF5C5C"/>
<path d="M1183.15 560.203V562.475H1176.11V560.203H1183.15Z" fill="#FF5C5C"/>
<circle cx="181.089" cy="387.296" r="15.0146" fill="#464954"/>
<path d="M187.098 394.052V392.551C187.098 391.754 186.781 390.99 186.218 390.427C185.655 389.864 184.891 389.548 184.095 389.548H178.089C177.292 389.548 176.529 389.864 175.965 390.427C175.402 390.99 175.086 391.754 175.086 392.551V394.052" stroke="#949494" stroke-width="2" stroke-linecap="round" stroke-linejoin="round"/>
<path d="M181.089 386.545C182.747 386.545 184.092 385.2 184.092 383.542C184.092 381.883 182.747 380.539 181.089 380.539C179.43 380.539 178.086 381.883 178.086 383.542C178.086 385.2 179.43 386.545 181.089 386.545Z" stroke="#949494" stroke-width="2" stroke-linecap="round" stroke-linejoin="round"/>
<circle cx="181.089" cy="477.384" r="15.0146" fill="#464954"/>
<path d="M187.098 484.14V482.638C187.098 481.842 186.781 481.078 186.218 480.515C185.655 479.952 184.891 479.635 184.095 479.635H178.089C177.292 479.635 176.529 479.952 175.965 480.515C175.402 481.078 175.086 481.842 175.086 482.638V484.14" stroke="#949494" stroke-width="2" stroke-linecap="round" stroke-linejoin="round"/>
<path d="M181.089 476.633C182.747 476.633 184.092 475.288 184.092 473.63C184.092 471.971 182.747 470.627 181.089 470.627C179.43 470.627 178.086 471.971 178.086 473.63C178.086 475.288 179.43 476.633 181.089 476.633Z" stroke="#949494" stroke-width="2" stroke-linecap="round" stroke-linejoin="round"/>
<circle cx="181.089" cy="561.466" r="15.0146" fill="#464954"/>
<path d="M187.098 568.222V566.721C187.098 565.924 186.781 565.16 186.218 564.597C185.655 564.034 184.891 563.718 184.095 563.718H178.089C177.292 563.718 176.529 564.034 175.965 564.597C175.402 565.16 175.086 565.924 175.086 566.721V568.222" stroke="#949494" stroke-width="2" stroke-linecap="round" stroke-linejoin="round"/>
<path d="M181.089 560.715C182.747 560.715 184.092 559.37 184.092 557.712C184.092 556.053 182.747 554.709 181.089 554.709C179.43 554.709 178.086 556.053 178.086 557.712C178.086 559.37 179.43 560.715 181.089 560.715Z" stroke="#949494" stroke-width="2" stroke-linecap="round" stroke-linejoin="round"/>
<line x1="131.636" y1="344.755" x2="1265.47" y2="344.755" stroke="#8B8B8B"/>
<line x1="131.636" y1="434.843" x2="1265.47" y2="434.843" stroke="#8B8B8B"/>
<line x1="131.636" y1="518.925" x2="1265.47" y2="518.925" stroke="#8B8B8B"/>
<circle cx="536.938" cy="213.877" r="8.25805" fill="url(#paint0_linear_22_327)"/>
<path d="M540.632 215.763C540.632 216.276 540.497 216.752 540.226 217.191C539.965 217.62 539.573 217.975 539.05 218.255C538.537 218.525 537.926 218.675 537.216 218.703V219.837H536.32V218.689C535.331 218.605 534.533 218.311 533.926 217.807C533.32 217.293 532.998 216.598 532.96 215.721H535.508C535.564 216.281 535.835 216.64 536.32 216.799V214.587C535.592 214.4 535.009 214.218 534.57 214.041C534.141 213.863 533.763 213.579 533.436 213.187C533.11 212.795 532.946 212.258 532.946 211.577C532.946 210.727 533.259 210.046 533.884 209.533C534.519 209.019 535.331 208.73 536.32 208.665V207.531H537.216V208.665C538.196 208.739 538.971 209.024 539.54 209.519C540.11 210.013 540.427 210.699 540.492 211.577H537.93C537.874 211.073 537.636 210.746 537.216 210.597V212.767C537.991 212.981 538.588 213.173 539.008 213.341C539.428 213.509 539.802 213.789 540.128 214.181C540.464 214.563 540.632 215.091 540.632 215.763ZM535.48 211.465C535.48 211.698 535.55 211.894 535.69 212.053C535.84 212.211 536.05 212.351 536.32 212.473V210.527C536.059 210.573 535.854 210.676 535.704 210.835C535.555 210.984 535.48 211.194 535.48 211.465ZM537.216 216.841C537.496 216.794 537.716 216.682 537.874 216.505C538.042 216.327 538.126 216.108 538.126 215.847C538.126 215.604 538.047 215.408 537.888 215.259C537.739 215.1 537.515 214.965 537.216 214.853V216.841Z" fill="white"/>
<circle cx="542.942" cy="297.958" r="8.25805" fill="url(#paint1_linear_22_327)"/>
<path d="M546.108 299.252C546.108 299.692 545.992 300.1 545.76 300.476C545.536 300.844 545.2 301.148 544.752 301.388C544.312 301.62 543.788 301.748 543.18 301.772V302.744H542.412V301.76C541.564 301.688 540.88 301.436 540.36 301.004C539.84 300.564 539.564 299.968 539.532 299.216H541.716C541.764 299.696 541.996 300.004 542.412 300.14V298.244C541.788 298.084 541.288 297.928 540.912 297.776C540.544 297.624 540.22 297.38 539.94 297.044C539.66 296.708 539.52 296.248 539.52 295.664C539.52 294.936 539.788 294.352 540.324 293.912C540.868 293.472 541.564 293.224 542.412 293.168V292.196H543.18V293.168C544.02 293.232 544.684 293.476 545.172 293.9C545.66 294.324 545.932 294.912 545.988 295.664H543.792C543.744 295.232 543.54 294.952 543.18 294.824V296.684C543.844 296.868 544.356 297.032 544.716 297.176C545.076 297.32 545.396 297.56 545.676 297.896C545.964 298.224 546.108 298.676 546.108 299.252ZM541.692 295.568C541.692 295.768 541.752 295.936 541.872 296.072C542 296.208 542.18 296.328 542.412 296.432V294.764C542.188 294.804 542.012 294.892 541.884 295.028C541.756 295.156 541.692 295.336 541.692 295.568ZM543.18 300.176C543.42 300.136 543.608 300.04 543.744 299.888C543.888 299.736 543.96 299.548 543.96 299.324C543.96 299.116 543.892 298.948 543.756 298.82C543.628 298.684 543.436 298.568 543.18 298.472V300.176Z" fill="white"/>
<circle cx="536.938" cy="388.046" r="8.25805" fill="url(#paint2_linear_22_327)"/>
<path d="M540.105 389.34C540.105 389.78 539.989 390.188 539.757 390.564C539.533 390.932 539.197 391.236 538.749 391.476C538.309 391.708 537.785 391.836 537.177 391.86V392.832H536.409V391.848C535.561 391.776 534.877 391.524 534.357 391.092C533.837 390.652 533.561 390.056 533.529 389.304H535.713C535.761 389.784 535.993 390.092 536.409 390.228V388.332C535.785 388.172 535.285 388.016 534.909 387.864C534.541 387.712 534.217 387.468 533.937 387.132C533.657 386.796 533.517 386.336 533.517 385.752C533.517 385.024 533.785 384.44 534.321 384C534.865 383.56 535.561 383.312 536.409 383.256V382.284H537.177V383.256C538.017 383.32 538.681 383.564 539.169 383.988C539.657 384.412 539.929 385 539.985 385.752H537.789C537.741 385.32 537.537 385.04 537.177 384.912V386.772C537.841 386.956 538.353 387.12 538.713 387.264C539.073 387.408 539.393 387.648 539.673 387.984C539.961 388.312 540.105 388.764 540.105 389.34ZM535.689 385.656C535.689 385.856 535.749 386.024 535.869 386.16C535.997 386.296 536.177 386.416 536.409 386.52V384.852C536.185 384.892 536.009 384.98 535.881 385.116C535.753 385.244 535.689 385.424 535.689 385.656ZM537.177 390.264C537.417 390.224 537.605 390.128 537.741 389.976C537.885 389.824 537.957 389.636 537.957 389.412C537.957 389.204 537.889 389.036 537.753 388.908C537.625 388.772 537.433 388.656 537.177 388.56V390.264Z" fill="white"/>
<circle cx="545.196" cy="478.135" r="8.25805" fill="url(#paint3_linear_22_327)"/>
<path d="M548.362 479.428C548.362 479.868 548.246 480.276 548.014 480.652C547.79 481.02 547.454 481.324 547.006 481.564C546.566 481.796 546.042 481.924 545.434 481.948V482.92H544.666V481.936C543.818 481.864 543.134 481.612 542.614 481.18C542.094 480.74 541.818 480.144 541.786 479.392H543.97C544.018 479.872 544.25 480.18 544.666 480.316V478.42C544.042 478.26 543.542 478.104 543.166 477.952C542.798 477.8 542.474 477.556 542.194 477.22C541.914 476.884 541.774 476.424 541.774 475.84C541.774 475.112 542.042 474.528 542.578 474.088C543.122 473.648 543.818 473.4 544.666 473.344V472.372H545.434V473.344C546.274 473.408 546.938 473.652 547.426 474.076C547.914 474.5 548.186 475.088 548.242 475.84H546.046C545.998 475.408 545.794 475.128 545.434 475V476.86C546.098 477.044 546.61 477.208 546.97 477.352C547.33 477.496 547.65 477.736 547.93 478.072C548.218 478.4 548.362 478.852 548.362 479.428ZM543.946 475.744C543.946 475.944 544.006 476.112 544.126 476.248C544.254 476.384 544.434 476.504 544.666 476.608V474.94C544.442 474.98 544.266 475.068 544.138 475.204C544.01 475.332 543.946 475.512 543.946 475.744ZM545.434 480.352C545.674 480.312 545.862 480.216 545.998 480.064C546.142 479.912 546.214 479.724 546.214 479.5C546.214 479.292 546.146 479.124 546.01 478.996C545.882 478.86 545.69 478.744 545.434 478.648V480.352Z" fill="white"/>
<circle cx="556.457" cy="562.216" r="8.25805" fill="url(#paint4_linear_22_327)"/>
<path d="M559.624 563.51C559.624 563.95 559.508 564.358 559.276 564.734C559.052 565.102 558.716 565.406 558.268 565.646C557.828 565.878 557.304 566.006 556.696 566.03V567.002H555.928V566.018C555.08 565.946 554.396 565.694 553.876 565.262C553.356 564.822 553.08 564.226 553.048 563.474H555.232C555.28 563.954 555.512 564.262 555.928 564.398V562.502C555.304 562.342 554.804 562.186 554.428 562.034C554.06 561.882 553.736 561.638 553.456 561.302C553.176 560.966 553.036 560.506 553.036 559.922C553.036 559.194 553.304 558.61 553.84 558.17C554.384 557.73 555.08 557.482 555.928 557.426V556.454H556.696V557.426C557.536 557.49 558.2 557.734 558.688 558.158C559.176 558.582 559.448 559.17 559.504 559.922H557.308C557.26 559.49 557.056 559.21 556.696 559.082V560.942C557.36 561.126 557.872 561.29 558.232 561.434C558.592 561.578 558.912 561.818 559.192 562.154C559.48 562.482 559.624 562.934 559.624 563.51ZM555.208 559.826C555.208 560.026 555.268 560.194 555.388 560.33C555.516 560.466 555.696 560.586 555.928 560.69V559.022C555.704 559.062 555.528 559.15 555.4 559.286C555.272 559.414 555.208 559.594 555.208 559.826ZM556.696 564.434C556.936 564.394 557.124 564.298 557.26 564.146C557.404 563.994 557.476 563.806 557.476 563.582C557.476 563.374 557.408 563.206 557.272 563.078C557.144 562.942 556.952 562.826 556.696 562.73V564.434Z" fill="white"/>
<circle cx="866.489" cy="213.877" r="8.25805" fill="url(#paint5_linear_22_327)"/>
<path d="M869.655 215.171C869.655 215.611 869.539 216.019 869.307 216.395C869.083 216.763 868.747 217.067 868.299 217.307C867.859 217.539 867.335 217.667 866.727 217.691V218.663H865.959V217.679C865.111 217.607 864.427 217.355 863.907 216.923C863.387 216.483 863.111 215.887 863.079 215.135H865.263C865.311 215.615 865.543 215.923 865.959 216.059V214.163C865.335 214.003 864.835 213.847 864.459 213.695C864.091 213.543 863.767 213.299 863.487 212.963C863.207 212.627 863.067 212.167 863.067 211.583C863.067 210.855 863.335 210.271 863.871 209.831C864.415 209.391 865.111 209.143 865.959 209.087V208.115H866.727V209.087C867.567 209.151 868.231 209.395 868.719 209.819C869.207 210.243 869.479 210.831 869.535 211.583H867.339C867.291 211.151 867.087 210.871 866.727 210.743V212.603C867.391 212.787 867.903 212.951 868.263 213.095C868.623 213.239 868.943 213.479 869.223 213.815C869.511 214.143 869.655 214.595 869.655 215.171ZM865.239 211.487C865.239 211.687 865.299 211.855 865.419 211.991C865.547 212.127 865.727 212.247 865.959 212.351V210.683C865.735 210.723 865.559 210.811 865.431 210.947C865.303 211.075 865.239 211.255 865.239 211.487ZM866.727 216.095C866.967 216.055 867.155 215.959 867.291 215.807C867.435 215.655 867.507 215.467 867.507 215.243C867.507 215.035 867.439 214.867 867.303 214.739C867.175 214.603 866.983 214.487 866.727 214.391V216.095Z" fill="white"/>
<circle cx="870.239" cy="297.958" r="8.25805" fill="url(#paint6_linear_22_327)"/>
<path d="M873.405 299.252C873.405 299.692 873.289 300.1 873.057 300.476C872.833 300.844 872.497 301.148 872.049 301.388C871.609 301.62 871.085 301.748 870.477 301.772V302.744H869.709V301.76C868.861 301.688 868.177 301.436 867.657 301.004C867.137 300.564 866.861 299.968 866.829 299.216H869.013C869.061 299.696 869.293 300.004 869.709 300.14V298.244C869.085 298.084 868.585 297.928 868.209 297.776C867.841 297.624 867.517 297.38 867.237 297.044C866.957 296.708 866.817 296.248 866.817 295.664C866.817 294.936 867.085 294.352 867.621 293.912C868.165 293.472 868.861 293.224 869.709 293.168V292.196H870.477V293.168C871.317 293.232 871.981 293.476 872.469 293.9C872.957 294.324 873.229 294.912 873.285 295.664H871.089C871.041 295.232 870.837 294.952 870.477 294.824V296.684C871.141 296.868 871.653 297.032 872.013 297.176C872.373 297.32 872.693 297.56 872.973 297.896C873.261 298.224 873.405 298.676 873.405 299.252ZM868.989 295.568C868.989 295.768 869.049 295.936 869.169 296.072C869.297 296.208 869.477 296.328 869.709 296.432V294.764C869.485 294.804 869.309 294.892 869.181 295.028C869.053 295.156 868.989 295.336 868.989 295.568ZM870.477 300.176C870.717 300.136 870.905 300.04 871.041 299.888C871.185 299.736 871.257 299.548 871.257 299.324C871.257 299.116 871.189 298.948 871.053 298.82C870.925 298.684 870.733 298.568 870.477 298.472V300.176Z" fill="white"/>
<circle cx="861.977" cy="388.047" r="8.25805" fill="url(#paint7_linear_22_327)"/>
<path d="M865.144 389.34C865.144 389.78 865.028 390.188 864.796 390.564C864.572 390.932 864.236 391.236 863.788 391.476C863.348 391.708 862.824 391.836 862.216 391.86V392.832H861.448V391.848C860.6 391.776 859.916 391.524 859.396 391.092C858.876 390.652 858.6 390.056 858.568 389.304H860.752C860.8 389.784 861.032 390.092 861.448 390.228V388.332C860.824 388.172 860.324 388.016 859.948 387.864C859.58 387.712 859.256 387.468 858.976 387.132C858.696 386.796 858.556 386.336 858.556 385.752C858.556 385.024 858.824 384.44 859.36 384C859.904 383.56 860.6 383.312 861.448 383.256V382.284H862.216V383.256C863.056 383.32 863.72 383.564 864.208 383.988C864.696 384.412 864.968 385 865.024 385.752H862.828C862.78 385.32 862.576 385.04 862.216 384.912V386.772C862.88 386.956 863.392 387.12 863.752 387.264C864.112 387.408 864.432 387.648 864.712 387.984C865 388.312 865.144 388.764 865.144 389.34ZM860.728 385.656C860.728 385.856 860.788 386.024 860.908 386.16C861.036 386.296 861.216 386.416 861.448 386.52V384.852C861.224 384.892 861.048 384.98 860.92 385.116C860.792 385.244 860.728 385.424 860.728 385.656ZM862.216 390.264C862.456 390.224 862.644 390.128 862.78 389.976C862.924 389.824 862.996 389.636 862.996 389.412C862.996 389.204 862.928 389.036 862.792 388.908C862.664 388.772 862.472 388.656 862.216 388.56V390.264Z" fill="white"/>
<circle cx="886.754" cy="562.216" r="8.25805" fill="url(#paint8_linear_22_327)"/>
<path d="M889.921 563.51C889.921 563.95 889.805 564.358 889.573 564.734C889.349 565.102 889.013 565.406 888.565 565.646C888.125 565.878 887.601 566.006 886.993 566.03V567.002H886.225V566.018C885.377 565.946 884.693 565.694 884.173 565.262C883.653 564.822 883.377 564.226 883.345 563.474H885.529C885.577 563.954 885.809 564.262 886.225 564.398V562.502C885.601 562.342 885.101 562.186 884.725 562.034C884.357 561.882 884.033 561.638 883.753 561.302C883.473 560.966 883.333 560.506 883.333 559.922C883.333 559.194 883.601 558.61 884.137 558.17C884.681 557.73 885.377 557.482 886.225 557.426V556.454H886.993V557.426C887.833 557.49 888.497 557.734 888.985 558.158C889.473 558.582 889.745 559.17 889.801 559.922H887.605C887.557 559.49 887.353 559.21 886.993 559.082V560.942C887.657 561.126 888.169 561.29 888.529 561.434C888.889 561.578 889.209 561.818 889.489 562.154C889.777 562.482 889.921 562.934 889.921 563.51ZM885.505 559.826C885.505 560.026 885.565 560.194 885.685 560.33C885.813 560.466 885.993 560.586 886.225 560.69V559.022C886.001 559.062 885.825 559.15 885.697 559.286C885.569 559.414 885.505 559.594 885.505 559.826ZM886.993 564.434C887.233 564.394 887.421 564.298 887.557 564.146C887.701 563.994 887.773 563.806 887.773 563.582C887.773 563.374 887.705 563.206 887.569 563.078C887.441 562.942 887.249 562.826 886.993 562.73V564.434Z" fill="white"/>
<circle cx="1151.01" cy="478.135" r="8.25805" fill="url(#paint9_linear_22_327)"/>
<path d="M1154.97 480.816C1154.97 481.366 1154.83 481.876 1154.54 482.346C1154.26 482.806 1153.84 483.186 1153.28 483.486C1152.73 483.776 1152.07 483.936 1151.31 483.966V485.181H1150.35V483.951C1149.29 483.861 1148.44 483.546 1147.79 483.006C1147.14 482.456 1146.79 481.711 1146.75 480.771H1149.48C1149.54 481.371 1149.83 481.756 1150.35 481.926V479.556C1149.57 479.356 1148.95 479.161 1148.48 478.971C1148.02 478.781 1147.61 478.476 1147.26 478.056C1146.91 477.636 1146.74 477.061 1146.74 476.331C1146.74 475.421 1147.07 474.691 1147.74 474.141C1148.42 473.591 1149.29 473.281 1150.35 473.211V471.996H1151.31V473.211C1152.36 473.291 1153.19 473.596 1153.8 474.126C1154.41 474.656 1154.75 475.391 1154.82 476.331H1152.08C1152.02 475.791 1151.76 475.441 1151.31 475.281V477.606C1152.14 477.836 1152.78 478.041 1153.23 478.221C1153.68 478.401 1154.08 478.701 1154.43 479.121C1154.79 479.531 1154.97 480.096 1154.97 480.816ZM1149.45 476.211C1149.45 476.461 1149.53 476.671 1149.68 476.841C1149.84 477.011 1150.06 477.161 1150.35 477.291V475.206C1150.07 475.256 1149.85 475.366 1149.69 475.536C1149.53 475.696 1149.45 475.921 1149.45 476.211ZM1151.31 481.971C1151.61 481.921 1151.85 481.801 1152.02 481.611C1152.2 481.421 1152.29 481.186 1152.29 480.906C1152.29 480.646 1152.2 480.436 1152.03 480.276C1151.87 480.106 1151.63 479.961 1151.31 479.841V481.971Z" fill="white"/>
<defs>
<filter id="filter0_d_22_327" x="0" y="0" width="1404" height="709.02" filterUnits="userSpaceOnUse" color-interpolation-filters="sRGB">
<feFlood flood-opacity="0" result="BackgroundImageFix"/>
<feColorMatrix in="SourceAlpha" type="matrix" values="0 0 0 0 0 0 0 0 0 0 0 0 0 0 0 0 0 0 127 0" result="hardAlpha"/>
<feMorphology radius="1" operator="erode" in="SourceAlpha" result="effect1_dropShadow_22_327"/>
<feOffset dy="4"/>
<feGaussianBlur stdDeviation="44.5"/>
<feComposite in2="hardAlpha" operator="out"/>
<feColorMatrix type="matrix" values="0 0 0 0 0 0 0 0 0 0 0 0 0 0 0 0 0 0 0.05 0"/>
<feBlend mode="normal" in2="BackgroundImageFix" result="effect1_dropShadow_22_327"/>
<feBlend mode="normal" in="SourceGraphic" in2="effect1_dropShadow_22_327" result="shape"/>
</filter>
<linearGradient id="paint0_linear_22_327" x1="540.691" y1="205.619" x2="533.184" y2="222.135" gradientUnits="userSpaceOnUse">
<stop stop-color="#CFBE23"/>
<stop offset="1" stop-color="#6D6520"/>
</linearGradient>
<linearGradient id="paint1_linear_22_327" x1="546.695" y1="289.7" x2="539.188" y2="306.217" gradientUnits="userSpaceOnUse">
<stop stop-color="#CFBE23"/>
<stop offset="1" stop-color="#6D6520"/>
</linearGradient>
<linearGradient id="paint2_linear_22_327" x1="540.691" y1="379.788" x2="533.184" y2="396.304" gradientUnits="userSpaceOnUse">
<stop stop-color="#CFBE23"/>
<stop offset="1" stop-color="#6D6520"/>
</linearGradient>
<linearGradient id="paint3_linear_22_327" x1="548.949" y1="469.876" x2="541.442" y2="486.393" gradientUnits="userSpaceOnUse">
<stop stop-color="#CFBE23"/>
<stop offset="1" stop-color="#6D6520"/>
</linearGradient>
<linearGradient id="paint4_linear_22_327" x1="560.211" y1="553.958" x2="552.704" y2="570.474" gradientUnits="userSpaceOnUse">
<stop stop-color="#CFBE23"/>
<stop offset="1" stop-color="#6D6520"/>
</linearGradient>
<linearGradient id="paint5_linear_22_327" x1="870.242" y1="205.619" x2="862.735" y2="222.135" gradientUnits="userSpaceOnUse">
<stop stop-color="#CFBE23"/>
<stop offset="1" stop-color="#6D6520"/>
</linearGradient>
<linearGradient id="paint6_linear_22_327" x1="873.992" y1="289.7" x2="866.485" y2="306.217" gradientUnits="userSpaceOnUse">
<stop stop-color="#CFBE23"/>
<stop offset="1" stop-color="#6D6520"/>
</linearGradient>
<linearGradient id="paint7_linear_22_327" x1="865.73" y1="379.788" x2="858.223" y2="396.305" gradientUnits="userSpaceOnUse">
<stop stop-color="#CFBE23"/>
<stop offset="1" stop-color="#6D6520"/>
</linearGradient>
<linearGradient id="paint8_linear_22_327" x1="890.508" y1="553.958" x2="883" y2="570.474" gradientUnits="userSpaceOnUse">
<stop stop-color="#CFBE23"/>
<stop offset="1" stop-color="#6D6520"/>
</linearGradient>
<linearGradient id="paint9_linear_22_327" x1="1154.77" y1="469.876" x2="1147.26" y2="486.393" gradientUnits="userSpaceOnUse">
<stop stop-color="#CFBE23"/>
<stop offset="1" stop-color="#6D6520"/>
</linearGradient>
</defs>
</svg>
